<svg width="35" height="34" viewBox="0 0 35 34" fill="none" xmlns="http://www.w3.org/2000/svg">
<path d="M12.8887 27.9205H25.1478C27.5235 27.9205 28.7113 26.7211 28.7113 24.2992V10.3103C28.7113 7.89998 27.5235 6.68906 25.1478 6.68906H14.1111L16.0025 8.54581H25.044C26.2433 8.54581 26.8546 9.1801 26.8546 10.3334V24.2762C26.8546 25.4295 26.2433 26.0638 25.0555 26.0638H12.9809C11.7931 26.0638 11.1703 25.4295 11.1703 24.2762V16.042H9.31357V24.2992C9.31357 26.7211 10.513 27.9205 12.8887 27.9205ZM14.6416 13.4933H23.1296C23.5332 13.4933 23.8446 13.1819 23.8446 12.7783C23.8446 12.3862 23.5332 12.0748 23.1296 12.0748H14.6416C14.2149 12.0748 13.9151 12.3862 13.9151 12.7783C13.9151 13.1819 14.2149 13.4933 14.6416 13.4933ZM14.6416 18.014H23.1296C23.5332 18.014 23.8446 17.6911 23.8446 17.2875C23.8446 16.8954 23.5332 16.5955 23.1296 16.5955H14.6416C14.2149 16.5955 13.9151 16.8954 13.9151 17.2875C13.9151 17.6911 14.2149 18.014 14.6416 18.014ZM14.6416 22.5232H23.1296C23.5332 22.5232 23.8446 22.2235 23.8446 21.8313C23.8446 21.4277 23.5332 21.1047 23.1296 21.1047H14.6416C14.2149 21.1047 13.9151 21.4277 13.9151 21.8313C13.9151 22.2235 14.2149 22.5232 14.6416 22.5232ZM5.98065 11.3598C5.96912 11.798 6.49962 11.948 6.78793 11.6596L8.55242 9.89512L10.5245 14.7618C10.6168 14.981 10.8474 15.0848 11.055 15.004L12.2082 14.5428C12.4043 14.4505 12.485 14.2083 12.3812 13.9892L10.3169 9.20316L12.7964 9.09937C13.2346 9.0763 13.4538 8.66114 13.1424 8.3267L6.83406 1.84539C6.54575 1.55708 6.09598 1.71853 6.08445 2.14524L5.98065 11.3598Z" fill="#9EFF00"/>
</svg>
