<svg width="21" height="21" viewBox="0 0 21 21" fill="none" xmlns="http://www.w3.org/2000/svg">
<g clip-path="url(#clip0_92_41959)">
<path d="M20.5 10.98C20.5 5.45713 16.0229 0.97998 10.5 0.97998C4.97715 0.97998 0.5 5.45713 0.5 10.98C0.5 15.9712 4.15684 20.1083 8.9375 20.8585V13.8706H6.39844V10.98H8.9375V8.77686C8.9375 6.27061 10.4305 4.88623 12.7146 4.88623C13.8084 4.88623 14.9531 5.08154 14.9531 5.08154V7.54248H13.6922C12.45 7.54248 12.0625 8.31338 12.0625 9.10498V10.98H14.8359L14.3926 13.8706H12.0625V20.8585C16.8432 20.1083 20.5 15.9712 20.5 10.98Z" fill="#9EFF00"/>
</g>
<defs>
<clipPath id="clip0_92_41959">
<rect width="20" height="20" fill="white" transform="translate(0.5 0.97998)"/>
</clipPath>
</defs>
</svg>
