<svg width="30" height="30" viewBox="0 0 30 30" fill="none" xmlns="http://www.w3.org/2000/svg">
<path d="M11.4637 17.0473C11.4637 16.9415 11.5178 16.8463 11.6043 16.7405L16.0707 11.2492C16.4058 10.826 16.9682 11.1116 16.7736 11.6301L15.3028 15.492H18.0604C18.2659 15.492 18.4498 15.6507 18.4498 15.8412C18.4498 15.947 18.3957 16.0634 18.2983 16.1585L13.8429 21.6392C13.5076 22.0625 12.9345 21.7768 13.1292 21.269L14.6107 17.3965H11.8422C11.6368 17.3965 11.4637 17.2484 11.4637 17.0473ZM5.64568 24.7288H24.3543C26.6254 24.7288 27.75 23.639 27.75 21.4594V11.228C27.75 9.04842 26.6254 7.95862 24.3543 7.95862H22.8619V6.54083C22.8619 5.73671 22.3861 5.25 21.5535 5.25H18.3632C17.5413 5.25 17.0655 5.73671 17.0655 6.54083V7.95862H12.9453V6.54083C12.9453 5.73671 12.4695 5.25 11.6368 5.25H8.44656C7.61387 5.25 7.14885 5.73671 7.14885 6.54083V7.95862H5.64568C3.3855 7.95862 2.25 9.04842 2.25 11.228V21.4594C2.25 23.639 3.3855 24.7288 5.64568 24.7288Z" fill="#9EFF00"/>
</svg>
