<svg width="34" height="34" viewBox="0 0 34 34" fill="none" xmlns="http://www.w3.org/2000/svg">
<path fill-rule="evenodd" clip-rule="evenodd" d="M10.675 8.87343C11.1729 9.37134 11.1729 10.1786 10.675 10.6765L4.35156 17L10.675 23.3234C11.1729 23.8213 11.1729 24.6286 10.675 25.1265C10.1771 25.6245 9.36979 25.6245 8.87188 25.1265L1.64688 17.9015C1.14896 17.4036 1.14896 16.5963 1.64688 16.0984L8.87188 8.87343C9.36979 8.37551 10.1771 8.37551 10.675 8.87343ZM23.3219 8.87343C23.8198 8.37551 24.6271 8.37551 25.125 8.87343L32.35 16.0984C32.8479 16.5963 32.8479 17.4036 32.35 17.9015L25.125 25.1265C24.6271 25.6245 23.8198 25.6245 23.3219 25.1265C22.824 24.6286 22.824 23.8213 23.3219 23.3234L29.6453 17L23.3219 10.6765C22.824 10.1786 22.824 9.37134 23.3219 8.87343Z" fill="#9EFF00"/>
<path fill-rule="evenodd" clip-rule="evenodd" d="M19.3401 3.41853C20.034 3.53817 20.4995 4.19769 20.3799 4.89162L16.1299 29.5416C16.0103 30.2355 15.3507 30.7011 14.6568 30.5814C13.9629 30.4618 13.4973 29.8023 13.617 29.1084L17.867 4.45836C17.9866 3.76443 18.6461 3.29888 19.3401 3.41853Z" fill="#9EFF00"/>
</svg>
