<svg width="20" height="21" viewBox="0 0 20 21" fill="none" xmlns="http://www.w3.org/2000/svg">
<path fill-rule="evenodd" clip-rule="evenodd" d="M1.25 4.72998C1.25 3.34927 2.36929 2.22998 3.75 2.22998H4.89302C5.61 2.22998 6.23498 2.71794 6.40887 3.41352L7.33037 7.09951C7.48284 7.7094 7.25495 8.35127 6.75202 8.72847L5.674 9.53698C5.56206 9.62094 5.53772 9.74388 5.56917 9.82972C6.51542 12.4129 8.5671 14.4646 11.1503 15.4108C11.2361 15.4423 11.359 15.4179 11.443 15.306L12.2515 14.228C12.6287 13.725 13.2706 13.4971 13.8805 13.6496L17.5665 14.5711C18.262 14.745 18.75 15.37 18.75 16.087V17.23C18.75 18.6107 17.6307 19.73 16.25 19.73H14.375C7.12626 19.73 1.25 13.8537 1.25 6.60498V4.72998Z" fill="#9EFF00"/>
</svg>
