<svg width="21" height="21" viewBox="0 0 21 21" fill="none" xmlns="http://www.w3.org/2000/svg">
<g clip-path="url(#clip0_92_41965)">
<path d="M19.0195 0.97998H1.97656C1.16016 0.97998 0.5 1.62451 0.5 2.42139V19.5347C0.5 20.3315 1.16016 20.98 1.97656 20.98H19.0195C19.8359 20.98 20.5 20.3315 20.5 19.5386V2.42139C20.5 1.62451 19.8359 0.97998 19.0195 0.97998ZM6.43359 18.0229H3.46484V8.47607H6.43359V18.0229ZM4.94922 7.17529C3.99609 7.17529 3.22656 6.40576 3.22656 5.45654C3.22656 4.50732 3.99609 3.73779 4.94922 3.73779C5.89844 3.73779 6.66797 4.50732 6.66797 5.45654C6.66797 6.40186 5.89844 7.17529 4.94922 7.17529ZM17.543 18.0229H14.5781V13.3823C14.5781 12.2769 14.5586 10.8511 13.0352 10.8511C11.4922 10.8511 11.2578 12.0581 11.2578 13.3042V18.0229H8.29688V8.47607H11.1406V9.78076H11.1797C11.5742 9.03076 12.543 8.23779 13.9844 8.23779C16.9883 8.23779 17.543 10.2144 17.543 12.7847V18.0229Z" fill="#9EFF00"/>
</g>
<defs>
<clipPath id="clip0_92_41965">
<rect width="20" height="20" fill="white" transform="translate(0.5 0.97998)"/>
</clipPath>
</defs>
</svg>
