<svg width="26" height="27" viewBox="0 0 26 27" fill="none" xmlns="http://www.w3.org/2000/svg">
<path d="M13.9752 7.15493C13.9752 6.61645 13.5387 6.17993 13.0002 6.17993C12.4617 6.17993 12.0252 6.61645 12.0252 7.15493V13.0049H6.1752C5.63672 13.0049 5.2002 13.4415 5.2002 13.9799C5.2002 14.5184 5.63672 14.9549 6.1752 14.9549L12.0252 14.9549V20.8049C12.0252 21.3434 12.4617 21.7799 13.0002 21.7799C13.5387 21.7799 13.9752 21.3434 13.9752 20.8049V14.9549H19.8252C20.3637 14.9549 20.8002 14.5184 20.8002 13.9799C20.8002 13.4415 20.3637 13.0049 19.8252 13.0049H13.9752V7.15493Z" fill="white"/>
</svg>
