<svg width="35" height="34" viewBox="0 0 35 34" fill="none" xmlns="http://www.w3.org/2000/svg">
<path d="M1.88281 29.0004C1.88281 29.6834 2.33817 30.1246 3.02121 30.1246H31.3245C31.9506 30.1246 32.4771 29.6265 32.4771 28.9862C32.4771 28.3601 31.9506 27.8478 31.3245 27.8478H4.57226C4.27344 27.8478 4.17383 27.7482 4.17383 27.4494V4.95186C4.17383 4.33998 3.66155 3.81348 3.03544 3.81348C2.39509 3.81348 1.88281 4.33998 1.88281 4.95186V29.0004ZM3.37695 20.1495L12.5268 14.8559L19.1152 20.5051L30.8264 13.5325L29.93 12.0811L19.2291 18.456L12.6691 12.8352L3.37695 18.1999V20.1495ZM12.3418 16.7769C13.7363 16.7769 14.8747 15.6385 14.8747 14.244C14.8747 12.8495 13.7363 11.7253 12.3418 11.7253C10.9473 11.7253 9.80887 12.8495 9.80887 14.244C9.80887 15.6385 10.9473 16.7769 12.3418 16.7769ZM19.0583 21.9993C20.4529 21.9993 21.5771 20.8609 21.5771 19.4663C21.5771 18.0718 20.4529 16.9476 19.0583 16.9476C17.6638 16.9476 16.5254 18.0718 16.5254 19.4663C16.5254 20.8609 17.6638 21.9993 19.0583 21.9993ZM29.7877 15.5247C31.1822 15.5247 32.3206 14.3863 32.3206 12.9918C32.3206 11.5972 31.1822 10.4588 29.7877 10.4588C28.3931 10.4588 27.2547 11.5972 27.2547 12.9918C27.2547 14.3863 28.3931 15.5247 29.7877 15.5247Z" fill="#9EFF00"/>
</svg>
