<svg width="27" height="26" viewBox="0 0 27 26" fill="none" xmlns="http://www.w3.org/2000/svg">
<path d="M14.4742 6.17501C14.4742 5.63653 14.0377 5.20001 13.4992 5.20001C12.9607 5.20001 12.5242 5.63653 12.5242 6.17501V12.025H6.67422C6.13574 12.025 5.69922 12.4615 5.69922 13C5.69922 13.5385 6.13574 13.975 6.67422 13.975L12.5242 13.975V19.825C12.5242 20.3635 12.9607 20.8 13.4992 20.8C14.0377 20.8 14.4742 20.3635 14.4742 19.825V13.975H20.3242C20.8627 13.975 21.2992 13.5385 21.2992 13C21.2992 12.4615 20.8627 12.025 20.3242 12.025H14.4742V6.17501Z" fill="white"/>
</svg>
