<svg width="35" height="34" viewBox="0 0 35 34" fill="none" xmlns="http://www.w3.org/2000/svg">
<path fill-rule="evenodd" clip-rule="evenodd" d="M12.0195 9.5625C12.0195 6.62849 14.398 4.25 17.332 4.25C20.266 4.25 22.6445 6.62849 22.6445 9.5625C22.6445 12.4965 20.266 14.875 17.332 14.875C14.398 14.875 12.0195 12.4965 12.0195 9.5625Z" fill="#9EFF00"/>
<path fill-rule="evenodd" clip-rule="evenodd" d="M22.6445 13.8125C22.6445 11.4653 24.5473 9.5625 26.8945 9.5625C29.2417 9.5625 31.1445 11.4653 31.1445 13.8125C31.1445 16.1597 29.2417 18.0625 26.8945 18.0625C24.5473 18.0625 22.6445 16.1597 22.6445 13.8125Z" fill="#9EFF00"/>
<path fill-rule="evenodd" clip-rule="evenodd" d="M3.51953 13.8125C3.51953 11.4653 5.42232 9.5625 7.76953 9.5625C10.1167 9.5625 12.0195 11.4653 12.0195 13.8125C12.0195 16.1597 10.1167 18.0625 7.76953 18.0625C5.42232 18.0625 3.51953 16.1597 3.51953 13.8125Z" fill="#9EFF00"/>
<path fill-rule="evenodd" clip-rule="evenodd" d="M9.271 21.4165C10.9681 18.7629 13.9439 17 17.332 17C20.7206 17 23.6967 18.7633 25.3937 21.4175C26.5669 23.2524 27.0745 25.4649 26.8364 27.6221C26.7992 27.9592 26.6033 28.2583 26.3091 28.4271C23.6637 29.945 20.5976 30.8125 17.332 30.8125C14.0665 30.8125 11.0004 29.945 8.35496 28.4271C8.06079 28.2583 7.86487 27.9592 7.82766 27.6221C7.58952 25.4645 8.09736 23.2516 9.271 21.4165Z" fill="#9EFF00"/>
<path d="M7.53193 20.1927C7.51487 20.2189 7.49792 20.2452 7.48106 20.2716C6.11333 22.4101 5.48739 24.957 5.67954 27.4678C4.81815 27.3369 3.98235 27.1265 3.18014 26.8439L3.01728 26.7866C2.72019 26.682 2.5126 26.4122 2.48762 26.0982L2.47392 25.9261C2.46272 25.7853 2.45703 25.6432 2.45703 25.5C2.45703 22.6456 4.70818 20.317 7.53193 20.1927Z" fill="#9EFF00"/>
<path d="M28.985 27.4677C29.1771 24.9574 28.5515 22.4111 27.1843 20.2728C27.1672 20.246 27.15 20.2193 27.1327 20.1927C29.9562 20.3173 32.207 22.6458 32.207 25.5C32.207 25.6432 32.2013 25.7853 32.1901 25.9261L32.1764 26.0982C32.1515 26.4122 31.9439 26.682 31.6468 26.7866L31.4839 26.8439C30.6819 27.1264 29.8462 27.3368 28.985 27.4677Z" fill="#9EFF00"/>
</svg>
