<svg width="34" height="34" viewBox="0 0 34 34" fill="none" xmlns="http://www.w3.org/2000/svg">
<path d="M18.4582 5.54029C19.1069 5.54029 19.6003 5.04675 19.6003 4.39811C19.6003 3.76358 19.1069 3.27004 18.4582 3.27004H8.13635L10.3784 5.54029H18.4582ZM22.4206 9.57315C23.0551 9.57315 23.5627 9.06552 23.5627 8.41687C23.5627 7.78233 23.0551 7.3029 22.4206 7.3029H12.0705L14.3125 9.57315H22.4206ZM26.2983 13.5919C26.9329 13.5919 27.4265 13.0843 27.4265 12.4356C27.4265 11.8011 26.9329 11.3217 26.2983 11.3217H16.0047L18.2467 13.5919H26.2983ZM30.2184 15.3405H19.9388C20.7849 16.2006 21.1656 16.7223 21.222 17.6107H30.2184C30.8529 17.6107 31.3606 17.1171 31.3606 16.4685C31.3606 15.8339 30.8529 15.3405 30.2184 15.3405ZM17.175 29.2722L12.1128 17.4415L11.436 18.5978L18.4582 18.9925C19.403 19.049 19.8542 18.0337 19.1774 17.3427L5.21746 3.07263C4.59702 2.43808 3.63815 2.79061 3.63815 3.67897L3.39844 23.5331C3.39844 24.506 4.48421 24.9009 5.10465 24.1817L9.64515 19.1617L8.33376 18.8234L13.2268 30.922C13.4242 31.4014 13.9177 31.627 14.3549 31.4296L16.7802 30.4284C17.2314 30.2592 17.3865 29.7375 17.175 29.2722Z" fill="#9EFF00"/>
</svg>
