<svg width="20" height="21" viewBox="0 0 20 21" fill="none" xmlns="http://www.w3.org/2000/svg">
<path fill-rule="evenodd" clip-rule="evenodd" d="M9.61646 19.6059C9.64163 19.6204 9.66141 19.6317 9.67542 19.6396L9.69869 19.6526C9.88441 19.7545 10.1148 19.7537 10.3007 19.6529L10.3246 19.6396C10.3386 19.6317 10.3584 19.6204 10.3835 19.6059C10.4339 19.5767 10.5058 19.5342 10.5963 19.4785C10.7771 19.3671 11.0323 19.203 11.3372 18.9876C11.9459 18.5576 12.7581 17.9195 13.5721 17.0861C15.1922 15.4273 16.875 12.9351 16.875 9.72998C16.875 5.93302 13.797 2.85498 10 2.85498C6.20304 2.85498 3.125 5.93302 3.125 9.72998C3.125 12.9351 4.80777 15.4273 6.42788 17.0861C7.24188 17.9195 8.05409 18.5576 8.66282 18.9876C8.96771 19.203 9.22295 19.3671 9.40375 19.4785C9.49419 19.5342 9.56612 19.5767 9.61646 19.6059ZM10 12.23C11.3807 12.23 12.5 11.1107 12.5 9.72998C12.5 8.34927 11.3807 7.22998 10 7.22998C8.61929 7.22998 7.5 8.34927 7.5 9.72998C7.5 11.1107 8.61929 12.23 10 12.23Z" fill="#9EFF00"/>
</svg>
