<svg width="30" height="30" viewBox="0 0 30 30" fill="none" xmlns="http://www.w3.org/2000/svg">
<path d="M14.0625 6.67117C14.0625 6.22723 13.8299 5.82595 13.561 5.47275C13.2849 5.11013 13.125 4.68 13.125 4.21875C13.125 2.92433 14.3842 1.875 15.9375 1.875C17.4908 1.875 18.75 2.92433 18.75 4.21875C18.75 4.68 18.5901 5.11013 18.314 5.47275C18.0451 5.82595 17.8125 6.22723 17.8125 6.67117C17.8125 7.08661 18.1596 7.41825 18.5743 7.3935C20.9626 7.25099 23.3123 6.9666 25.6152 6.54873C25.8687 6.50274 26.1299 6.56306 26.3375 6.71551C26.5451 6.86796 26.6808 7.09913 26.7128 7.35471C26.9929 9.59155 27.1516 11.8658 27.1823 14.1706C27.1884 14.6285 26.8167 14.9999 26.3587 15C25.9147 15 25.5135 14.7674 25.1602 14.4985C24.7976 14.2224 24.3675 14.0625 23.9062 14.0625C22.6118 14.0625 21.5625 15.3217 21.5625 16.875C21.5625 18.4283 22.6118 19.6875 23.9062 19.6875C24.3675 19.6875 24.7976 19.5276 25.1602 19.2515C25.5135 18.9826 25.9147 18.75 26.3587 18.75C26.7467 18.75 27.0548 19.0771 27.0268 19.4641C26.8785 21.5123 26.6289 23.5327 26.2829 25.5202C26.2151 25.9099 25.9098 26.2152 25.5201 26.283C23.2462 26.6787 20.9293 26.9484 18.5769 27.0846C18.1606 27.1087 17.8125 26.7756 17.8125 26.3587C17.8125 25.9147 18.0451 25.5135 18.314 25.1602C18.5901 24.7976 18.75 24.3675 18.75 23.9062C18.75 22.6118 17.4908 21.5625 15.9375 21.5625C14.3842 21.5625 13.125 22.6118 13.125 23.9062C13.125 24.3675 13.2849 24.7976 13.561 25.1602C13.8299 25.5135 14.0625 25.9147 14.0625 26.3587C14.0625 26.8106 13.6924 27.1757 13.2407 27.1628C11.2538 27.1065 9.29048 26.955 7.35516 26.7127C7.09958 26.6807 6.86842 26.5449 6.71596 26.3373C6.56351 26.1297 6.5032 25.8685 6.54919 25.6151C6.91528 23.5976 7.17893 21.5442 7.3345 19.4604C7.36322 19.0756 7.05703 18.75 6.67117 18.75C6.22723 18.75 5.82595 18.9826 5.47275 19.2515C5.11013 19.5276 4.68 19.6875 4.21875 19.6875C2.92433 19.6875 1.875 18.4283 1.875 16.875C1.875 15.3217 2.92433 14.0625 4.21875 14.0625C4.68 14.0625 5.11013 14.2224 5.47275 14.4985C5.82595 14.7674 6.22723 15 6.67117 15C7.12913 15 7.50097 14.6287 7.49467 14.1708C7.46667 12.1356 7.33577 10.1253 7.10699 8.14535C7.07413 7.86101 7.17298 7.57723 7.37538 7.37483C7.57778 7.17243 7.86156 7.07358 8.1459 7.10644C9.82378 7.30032 11.5233 7.4239 13.2413 7.47414C13.6927 7.48734 14.0625 7.12271 14.0625 6.67117Z" fill="#9EFF00"/>
</svg>
