<svg width="35" height="34" viewBox="0 0 35 34" fill="none" xmlns="http://www.w3.org/2000/svg">
<path d="M30.418 9.03125C30.418 12.8455 24.7096 15.9375 17.668 15.9375C10.6263 15.9375 4.91797 12.8455 4.91797 9.03125C4.91797 5.21703 10.6263 2.125 17.668 2.125C24.7096 2.125 30.418 5.21703 30.418 9.03125Z" fill="#9EFF00"/>
<path d="M17.668 18.0625C21.472 18.0625 25.0212 17.2319 27.6957 15.7832C28.6732 15.2537 29.6031 14.5978 30.3821 13.822C30.4059 13.9943 30.418 14.1682 30.418 14.3438C30.418 18.158 24.7096 21.25 17.668 21.25C10.6263 21.25 4.91797 18.158 4.91797 14.3438C4.91797 14.1682 4.93006 13.9943 4.9538 13.822C5.73287 14.5978 6.66277 15.2537 7.64026 15.7832C10.3147 17.2319 13.864 18.0625 17.668 18.0625Z" fill="#9EFF00"/>
<path d="M17.668 23.375C21.472 23.375 25.0212 22.5444 27.6957 21.0957C28.6732 20.5662 29.6031 19.9103 30.3821 19.1345C30.4059 19.3068 30.418 19.4807 30.418 19.6562C30.418 23.4705 24.7096 26.5625 17.668 26.5625C10.6263 26.5625 4.91797 23.4705 4.91797 19.6562C4.91797 19.4807 4.93006 19.3068 4.9538 19.1345C5.73287 19.9103 6.66277 20.5662 7.64026 21.0957C10.3147 22.5444 13.864 23.375 17.668 23.375Z" fill="#9EFF00"/>
<path d="M17.668 28.6875C21.472 28.6875 25.0212 27.8569 27.6957 26.4082C28.6732 25.8787 29.6031 25.2228 30.3821 24.447C30.4059 24.6193 30.418 24.7932 30.418 24.9687C30.418 28.783 24.7096 31.875 17.668 31.875C10.6263 31.875 4.91797 28.783 4.91797 24.9687C4.91797 24.7932 4.93006 24.6193 4.9538 24.447C5.73287 25.2228 6.66277 25.8787 7.64026 26.4082C10.3147 27.8569 13.864 28.6875 17.668 28.6875Z" fill="#9EFF00"/>
</svg>
