<svg width="27" height="26" viewBox="0 0 27 26" fill="none" xmlns="http://www.w3.org/2000/svg">
<path d="M8.66443 6.78557C8.28367 6.40481 7.66633 6.40481 7.28557 6.78557C6.90481 7.16633 6.90481 7.78367 7.28557 8.16443L12.1211 13L7.28557 17.8356C6.90481 18.2163 6.90481 18.8337 7.28557 19.2144C7.66633 19.5952 8.28367 19.5952 8.66443 19.2144L13.5 14.3789L18.3356 19.2144C18.7163 19.5952 19.3337 19.5952 19.7144 19.2144C20.0952 18.8337 20.0952 18.2163 19.7144 17.8356L14.8789 13L19.7144 8.16443C20.0952 7.78367 20.0952 7.16633 19.7144 6.78557C19.3337 6.40481 18.7163 6.40481 18.3356 6.78557L13.5 11.6211L8.66443 6.78557Z" fill="#C5FF66"/>
</svg>
