<svg width="35" height="34" viewBox="0 0 35 34" fill="none" xmlns="http://www.w3.org/2000/svg">
<g clip-path="url(#clip0_100_2934)">
<g clip-path="url(#clip1_100_2934)">
<path d="M4.45168 32.0962C6.67154 34.3303 9.54598 34.3588 11.7374 32.1674C13.4877 30.4171 15.1811 26.4612 16.476 24.4833L19.9196 27.9411C20.9726 29.0083 22.2533 29.0083 23.2494 27.9838L24.4731 26.7601C25.512 25.707 25.4978 24.5117 24.4305 23.4445L13.1177 12.1174C12.0362 11.0502 10.8267 11.036 9.78789 12.0748L8.56412 13.2985C7.53957 14.3231 7.53957 15.5611 8.6068 16.6283L12.0504 20.072C10.0867 21.3669 6.14503 23.0603 4.38053 24.8105C2.20335 27.002 2.21758 29.8906 4.45168 32.0962ZM8.25107 30.2464C7.26919 30.2464 6.48655 29.4495 6.48655 28.4818C6.48655 27.5143 7.26919 26.7315 8.25107 26.7315C9.21869 26.7315 10.0013 27.5143 10.0013 28.4818C10.0013 29.4495 9.21869 30.2464 8.25107 30.2464ZM26.1238 22.7898L31.6451 17.2687C33.2245 15.6892 33.1819 13.8108 31.5739 12.1743L30.8481 11.4344C29.3683 13.3554 25.142 15.6038 24.3308 14.7927C24.2028 14.6646 24.1885 14.4085 24.3736 14.2092C26.0953 12.4875 27.2195 10.8083 27.4757 8.07615L20.1615 0.747746C18.8096 -0.604095 16.4618 -0.162968 15.8214 2.39842C14.9249 6.04128 14.1138 8.16153 13.2315 9.91181L26.1238 22.7898Z" fill="#9EFF00"/>
</g>
</g>
<defs>
<clipPath id="clip0_100_2934">
<rect width="34" height="34" fill="white" transform="translate(0.332031)"/>
</clipPath>
<clipPath id="clip1_100_2934">
<rect width="30.0435" height="34.0108" fill="white" transform="translate(2.76172)"/>
</clipPath>
</defs>
</svg>
