<svg width="35" height="34" viewBox="0 0 35 34" fill="none" xmlns="http://www.w3.org/2000/svg">
<path d="M28.8377 19.9881V9.10226C28.8377 7.60811 28.1972 7.12431 26.9877 6.62625C25.3086 5.94322 19.887 3.87988 18.2079 3.39607C17.8236 3.29646 17.411 3.18262 17.0126 3.18262C16.6141 3.18262 16.2014 3.268 15.8315 3.39607C14.1381 3.97949 8.71652 5.92899 7.03739 6.62625C5.84208 7.13854 5.1875 7.60811 5.1875 9.10226V19.9881C5.1875 25.1821 7.96234 27.1031 16.0591 31.6424C16.4291 31.8417 16.7849 31.9271 17.0126 31.9271C17.2402 31.9271 17.6103 31.8417 17.9659 31.6424C26.0486 27.0889 28.8377 25.1821 28.8377 19.9881ZM16.7137 29.2945C16.543 29.2518 16.358 29.1522 16.1303 29.0099C9.57032 25.0114 7.45005 23.8586 7.45005 19.4616V9.54339C7.45005 9.05957 7.53543 8.86036 7.93387 8.71805C10.1395 7.96386 14.2946 6.4555 16.4434 5.6017C16.5572 5.55901 16.6426 5.53056 16.7137 5.51632V29.2945Z" fill="#9EFF00"/>
</svg>
