<svg width="34" height="34" viewBox="0 0 34 34" fill="none" xmlns="http://www.w3.org/2000/svg">
<g clip-path="url(#clip0_100_3155)">
<path d="M1.75015 32.2217C4.09808 34.5697 7.58442 34.655 9.88965 31.9087C11.583 29.8738 15.8662 22.9723 19.5375 19.3009C21.9851 16.8533 24.6887 18.1483 27.4067 17.0384L24.9876 8.2158C24.6887 7.1201 25.1299 6.20939 26.3964 5.86787L31.7326 4.44489C31.5618 3.94683 31.0923 3.2638 30.5088 2.66614C27.2217 -0.706348 21.7859 -0.749038 18.5414 2.32462C13.8029 6.83551 17.403 11.6025 14.2867 14.7189C10.3592 18.6322 4.95188 21.4781 2.06321 24.0679C-0.640476 26.4728 -0.626245 29.8452 1.75015 32.2217ZM5.77722 29.9449C4.80958 29.9449 4.0127 29.1622 4.0127 28.1947C4.0127 27.227 4.80958 26.4301 5.77722 26.4301C6.74485 26.4301 7.52749 27.227 7.52749 28.1947C7.52749 29.1622 6.74485 29.9449 5.77722 29.9449ZM19.1533 10.9337C18.8403 11.0191 18.57 10.8626 18.4703 10.5211C18.3849 10.2649 18.5556 9.95185 18.8545 9.86648L22.1843 8.96999C22.4547 8.89884 22.7677 9.0696 22.8389 9.36843C22.9385 9.69571 22.7535 9.98032 22.4547 10.0657L19.1533 10.9337ZM19.5802 12.627C19.2672 12.7125 18.9968 12.556 18.883 12.2144C18.7976 11.9583 18.9826 11.6452 19.2814 11.5741L22.597 10.6634C22.8673 10.6064 23.1803 10.763 23.2657 11.0618C23.3654 11.3891 23.1661 11.6737 22.8673 11.7591L19.5802 12.627ZM19.9929 14.3205C19.694 14.4058 19.381 14.2493 19.3241 13.9077C19.253 13.6232 19.4095 13.3528 19.7225 13.2674L23.0238 12.3851C23.3369 12.2856 23.6357 12.4705 23.6927 12.7551C23.7638 13.0398 23.5931 13.3528 23.3227 13.424L19.9929 14.3205ZM28.972 16.3554C29.5269 16.028 30.0961 15.6012 30.6795 15.0461C32.4725 13.424 33.3975 10.9764 33.0275 9.24036L28.7158 10.4214C28.232 10.5495 27.8193 10.578 27.3783 10.5068L28.972 16.3554Z" fill="#9EFF00"/>
</g>
<defs>
<clipPath id="clip0_100_3155">
<rect width="34" height="34" fill="white"/>
</clipPath>
</defs>
</svg>
