<svg width="26" height="27" viewBox="0 0 26 27" fill="none" xmlns="http://www.w3.org/2000/svg">
<path d="M8.16443 7.76555C7.78367 7.38479 7.16633 7.38479 6.78557 7.76555C6.40481 8.14631 6.40481 8.76365 6.78557 9.14441L11.6211 13.98L6.78557 18.8156C6.40481 19.1963 6.40481 19.8136 6.78557 20.1944C7.16633 20.5752 7.78367 20.5752 8.16443 20.1944L13 15.3588L17.8356 20.1944C18.2163 20.5752 18.8337 20.5752 19.2144 20.1944C19.5952 19.8136 19.5952 19.1963 19.2144 18.8156L14.3789 13.98L19.2144 9.14441C19.5952 8.76365 19.5952 8.14631 19.2144 7.76555C18.8337 7.38479 18.2163 7.38479 17.8356 7.76555L13 12.6011L8.16443 7.76555Z" fill="#C5FF66"/>
</svg>
