<svg width="35" height="34" viewBox="0 0 35 34" fill="none" xmlns="http://www.w3.org/2000/svg">
<path d="M22.4723 15.7249C23.2717 15.7249 23.8784 14.9892 23.5557 14.2578C22.5013 11.868 20.1111 10.2 17.3313 10.2C17.0826 10.2 16.8372 10.2133 16.5955 10.2393C15.8 10.3249 15.4655 11.2183 15.8655 11.9112L17.6993 15.0874C17.9271 15.4819 18.348 15.7249 18.8035 15.7249L22.4723 15.7249Z" fill="#9EFF00"/>
<path d="M13.6584 13.1883C13.2582 12.4953 12.3167 12.3382 11.8436 12.9836C11.0185 14.109 10.5312 15.4976 10.5312 17C10.5312 18.5024 11.0185 19.891 11.8436 21.0164C12.3168 21.6618 13.2583 21.5047 13.6584 20.8117L15.491 17.6376C15.7188 17.2431 15.7188 16.757 15.491 16.3626L13.6584 13.1883Z" fill="#9EFF00"/>
<path d="M15.8656 22.0888C15.4656 22.7816 15.8002 23.6751 16.5956 23.7606C16.8372 23.7866 17.0827 23.8 17.3313 23.8C20.1111 23.8 22.5014 22.1319 23.5557 19.7421C23.8784 19.0107 23.2717 18.2749 22.4723 18.2749H18.8036C18.3481 18.2749 17.9272 18.5179 17.6995 18.9124L15.8656 22.0888Z" fill="#9EFF00"/>
<path fill-rule="evenodd" clip-rule="evenodd" d="M24.3515 7.39026L25.4478 5.49142C25.7998 4.8816 25.5909 4.10182 24.9811 3.74974C24.3712 3.39766 23.5915 3.6066 23.2394 4.21642L22.1442 6.11341C21.0426 5.6257 19.8532 5.30028 18.6063 5.16745V2.97495C18.6063 2.27079 18.0354 1.69995 17.3313 1.69995C16.6271 1.69995 16.0563 2.27079 16.0563 2.97495V5.16745C14.8093 5.30028 13.6199 5.62571 12.5183 6.11342L11.4231 4.21646C11.071 3.60664 10.2913 3.3977 9.68143 3.74978C9.07161 4.10186 8.86267 4.88164 9.21475 5.49146L10.311 7.39028C9.32058 8.11507 8.44636 8.98928 7.72157 9.97974L5.8224 8.88325C5.21257 8.53117 4.43279 8.74011 4.08071 9.34993C3.72863 9.95975 3.93757 10.7395 4.54739 11.0916L6.44471 12.187C5.957 13.2886 5.63158 14.478 5.49875 15.725H3.30625C2.60209 15.725 2.03125 16.2958 2.03125 17C2.03125 17.7041 2.60209 18.275 3.30625 18.275H5.49875C5.63157 19.5219 5.957 20.7113 6.4447 21.8128L4.5474 22.9082C3.93757 23.2603 3.72863 24.0401 4.08071 24.6499C4.43279 25.2598 5.21257 25.4687 5.8224 25.1166L7.72155 24.0201C8.44628 25.0105 9.32042 25.8847 10.3108 26.6094L9.21439 28.5084C8.86231 29.1183 9.07125 29.898 9.68107 30.2501C10.2909 30.6022 11.0707 30.3933 11.4228 29.7834L12.518 27.8864C13.6197 28.3741 14.8092 28.6996 16.0563 28.8324V31.025C16.0563 31.7291 16.6271 32.3 17.3313 32.3C18.0354 32.3 18.6063 31.7291 18.6063 31.025V28.8324C19.8533 28.6996 21.0428 28.3741 22.1444 27.8864L23.2397 29.7835C23.5918 30.3933 24.3716 30.6022 24.9814 30.2502C25.5913 29.8981 25.8002 29.1183 25.4481 28.5085L24.3517 26.6095C25.342 25.8847 26.2162 25.0106 26.9409 24.0202L28.8398 25.1166C29.4497 25.4687 30.2294 25.2598 30.5815 24.6499C30.9336 24.0401 30.7247 23.2603 30.1148 22.9082L28.2178 21.813C28.7055 20.7114 29.0309 19.522 29.1637 18.275H31.3563C32.0604 18.275 32.6313 17.7041 32.6313 17C32.6313 16.2958 32.0604 15.725 31.3563 15.725H29.1637C29.0309 14.4779 28.7055 13.2885 28.2177 12.1869L30.1148 11.0916C30.7247 10.7395 30.9336 9.95975 30.5815 9.34993C30.2294 8.74011 29.4497 8.53117 28.8398 8.88325L26.9408 9.97962C26.2161 8.98921 25.3419 8.11503 24.3515 7.39026ZM17.3313 7.64995C15.6503 7.64995 14.0729 8.09354 12.7098 8.87005C12.6924 8.88128 12.6746 8.89214 12.6564 8.90263C12.6389 8.91276 12.6212 8.92243 12.6034 8.93164C11.2226 9.74248 10.0684 10.8976 9.25877 12.2792C9.25071 12.2945 9.24231 12.3098 9.23356 12.3249C9.22446 12.3407 9.21508 12.3562 9.20542 12.3714C8.42639 13.7361 7.98125 15.3161 7.98125 17C7.98125 18.6837 8.42629 20.2634 9.20517 21.6281C9.21492 21.6434 9.22439 21.659 9.23356 21.6749C9.24239 21.6902 9.25087 21.7056 9.25899 21.7211C10.0692 23.1034 11.2243 24.259 12.6061 25.0699C12.6229 25.0786 12.6395 25.0877 12.6561 25.0973C12.6733 25.1072 12.6901 25.1175 12.7067 25.128C14.0705 25.9057 15.649 26.35 17.3313 26.35C19.0138 26.35 20.5925 25.9055 21.9564 25.1277C21.9728 25.1173 21.9895 25.1071 22.0064 25.0973C22.0228 25.0879 22.0393 25.0788 22.0559 25.0702C23.4365 24.2601 24.5908 23.1059 25.401 21.7254C25.4098 21.7084 25.419 21.6916 25.4287 21.6749C25.4387 21.6576 25.449 21.6406 25.4597 21.624C26.2371 20.2603 26.6813 18.682 26.6813 17C26.6813 15.3177 26.237 13.7393 25.4594 12.3755C25.4488 12.359 25.4386 12.3421 25.4287 12.3249C25.4191 12.3084 25.41 12.2917 25.4012 12.2749C24.5916 10.8951 23.4382 9.74135 22.0586 8.93132C22.041 8.9222 22.0234 8.91262 22.0061 8.90259C21.9881 8.89221 21.9705 8.88145 21.9532 8.87034C20.59 8.09365 19.0124 7.64995 17.3313 7.64995Z" fill="#9EFF00"/>
</svg>
