<svg width="35" height="34" viewBox="0 0 35 34" fill="none" xmlns="http://www.w3.org/2000/svg">
<path fill-rule="evenodd" clip-rule="evenodd" d="M3.85547 8.5C3.85547 6.15279 5.75826 4.25 8.10547 4.25H27.2305C29.5777 4.25 31.4805 6.15279 31.4805 8.5V25.5C31.4805 27.8472 29.5777 29.75 27.2305 29.75H8.10547C5.75826 29.75 3.85547 27.8472 3.85547 25.5V8.5ZM9.47917 9.8737C9.8941 9.45877 10.5668 9.45877 10.9818 9.8737L14.1693 13.0612C14.5842 13.4761 14.5842 14.1489 14.1693 14.5638L10.9818 17.7513C10.5668 18.1662 9.8941 18.1662 9.47917 17.7513C9.06424 17.3364 9.06424 16.6636 9.47917 16.2487L11.9154 13.8125L9.47917 11.3763C9.06424 10.9614 9.06424 10.2886 9.47917 9.8737ZM15.543 15.9375C14.9562 15.9375 14.4805 16.4132 14.4805 17C14.4805 17.5868 14.9562 18.0625 15.543 18.0625H19.793C20.3798 18.0625 20.8555 17.5868 20.8555 17C20.8555 16.4132 20.3798 15.9375 19.793 15.9375H15.543Z" fill="#9EFF00"/>
</svg>
