<svg xmlns="http://www.w3.org/2000/svg" xmlns:xlink="http://www.w3.org/1999/xlink" width="500" zoomAndPan="magnify" viewBox="0 0 375 374.999991" height="500" preserveAspectRatio="xMidYMid meet" version="1.0"><defs><g/></defs><g fill="#ffffff" fill-opacity="1"><g transform="translate(-1.499995, 204.374987)"><g><path d="M 20.140625 -57.8125 L 20.140625 -8.265625 L 27.34375 -8.265625 L 27.34375 0 L 3.015625 0 L 3.015625 -8.265625 L 10.21875 -8.265625 L 10.21875 -57.8125 L 3.015625 -57.8125 L 3.015625 -66.078125 L 27.34375 -66.078125 L 27.34375 -57.8125 Z M 20.140625 -57.8125 "/></g></g></g><g fill="#ffffff" fill-opacity="1"><g transform="translate(28.962459, 204.374987)"><g><path d="M 51.78125 -14.703125 L 51.78125 -57.8125 L 42.53125 -57.8125 L 42.53125 -66.078125 L 69.6875 -66.078125 L 69.6875 -57.8125 L 59.953125 -57.8125 L 59.953125 0.6875 L 49.546875 0.6875 L 18.203125 -55.765625 L 18 -55.765625 L 18 -8.265625 L 27.546875 -8.265625 L 27.546875 0 L 0.390625 0 L 0.390625 -8.265625 L 9.828125 -8.265625 L 9.828125 -57.8125 L 0.390625 -57.8125 L 0.390625 -66.078125 L 22.96875 -65.984375 L 51.578125 -14.703125 Z M 51.78125 -14.703125 "/></g></g></g><g fill="#ffffff" fill-opacity="1"><g transform="translate(98.938509, 204.374987)"><g><path d="M 44.875 -46.234375 L 44.875 -57.8125 L 20.046875 -57.8125 L 20.046875 -38.25 L 41.46875 -38.25 L 41.46875 -29.984375 L 20.046875 -29.984375 L 20.046875 -8.265625 L 28.609375 -8.265625 L 28.609375 0 L 1.75 0 L 1.75 -8.265625 L 10.125 -8.265625 L 10.125 -57.8125 L 1.75 -57.8125 L 1.75 -66.078125 L 53.046875 -66.078125 L 53.046875 -46.234375 Z M 44.875 -46.234375 "/></g></g></g><g fill="#ffffff" fill-opacity="1"><g transform="translate(152.661432, 204.374987)"><g><path d="M 17.90625 -57.8125 L 32.40625 -37.46875 L 45.75 -57.8125 L 37.46875 -57.8125 L 37.46875 -66.078125 L 63.84375 -66.078125 L 63.84375 -57.8125 L 55.09375 -57.8125 L 36.6875 -30.078125 L 36.6875 -8.265625 L 45.75 -8.265625 L 45.75 0 L 17.90625 0 L 17.90625 -8.265625 L 26.765625 -8.265625 L 26.765625 -30.078125 L 7.109375 -57.8125 L -0.96875 -57.8125 L -0.96875 -66.078125 L 26.1875 -66.078125 L 26.1875 -57.8125 Z M 17.90625 -57.8125 "/></g></g></g><g fill="#ffffff" fill-opacity="1"><g transform="translate(215.53282, 204.374987)"><g><path d="M 43.5 -58.6875 L 61.3125 -8.265625 L 68.71875 -8.265625 L 68.71875 0 L 42.828125 0 L 42.828125 -8.265625 L 51 -8.265625 L 46.140625 -23.265625 L 22.390625 -23.265625 L 17.234375 -8.265625 L 25.3125 -8.265625 L 25.3125 0 L -0.78125 0 L -0.78125 -8.265625 L 7.203125 -8.265625 L 25.3125 -58.6875 L 17.515625 -58.6875 L 17.515625 -66.078125 L 51.296875 -66.078125 L 51.296875 -58.6875 Z M 43.609375 -30.953125 L 34.84375 -58.6875 L 33.96875 -58.6875 L 24.8125 -30.953125 Z M 43.609375 -30.953125 "/></g></g></g><g fill="#ffffff" fill-opacity="1"><g transform="translate(283.465058, 204.374987)"><g><path d="M 20.140625 -57.8125 L 20.140625 -8.265625 L 27.34375 -8.265625 L 27.34375 0 L 3.015625 0 L 3.015625 -8.265625 L 10.21875 -8.265625 L 10.21875 -57.8125 L 3.015625 -57.8125 L 3.015625 -66.078125 L 27.34375 -66.078125 L 27.34375 -57.8125 Z M 20.140625 -57.8125 "/></g></g></g><g fill="#ffffff" fill-opacity="1"><g transform="translate(313.927512, 204.374987)"><g><path d="M 32.3125 -66.078125 C 38.21875 -66.078125 43.113281 -64.695312 47 -61.9375 C 50.894531 -59.1875 52.84375 -54.828125 52.84375 -48.859375 C 52.84375 -44.835938 51.738281 -41.378906 49.53125 -38.484375 C 47.332031 -35.597656 43.894531 -33.539062 39.21875 -32.3125 L 50.90625 -8.265625 L 58.984375 -8.265625 L 58.984375 0 L 44.671875 0 L 29.6875 -30.953125 L 20.25 -30.953125 L 20.25 -8.265625 L 28.8125 -8.265625 L 28.8125 0 L 1.265625 0 L 1.265625 -8.265625 L 10.3125 -8.265625 L 10.3125 -57.8125 L 1.265625 -57.8125 L 1.265625 -66.078125 Z M 31.828125 -39.21875 C 35.140625 -39.21875 37.785156 -40.015625 39.765625 -41.609375 C 41.742188 -43.203125 42.734375 -45.617188 42.734375 -48.859375 C 42.734375 -51.648438 41.835938 -53.835938 40.046875 -55.421875 C 38.265625 -57.015625 35.785156 -57.8125 32.609375 -57.8125 L 20.25 -57.8125 L 20.25 -39.21875 Z M 31.828125 -39.21875 "/></g></g></g></svg>