<svg width="102" height="40" viewBox="0 0 102 40" fill="none" xmlns="http://www.w3.org/2000/svg">
<g clip-path="url(#clip0_92_36102)">
<path d="M31.8539 27.0245L33.0774 24.1649C34.4169 25.1569 36.1641 25.682 37.9118 25.682C39.1933 25.682 40.0086 25.1862 40.0086 24.4277C39.9794 22.3266 32.2908 23.9607 32.2324 18.6785C32.2031 15.994 34.5915 13.9222 37.9703 13.9222C39.9794 13.9222 41.9893 14.4184 43.4162 15.5566L42.2729 18.4772C40.9601 17.633 39.3386 17.0445 37.7952 17.0445C36.7468 17.0445 36.0476 17.5403 36.0476 18.1827C36.0768 20.2545 43.8243 19.1162 43.9116 24.1649C43.9116 26.9079 41.5812 28.8339 38.261 28.8339C35.8149 28.8339 33.5723 28.2504 31.8535 27.0245H31.8539ZM80.569 23.1295C80.2602 23.6782 79.811 24.1348 79.2674 24.4527C78.7239 24.7705 78.1056 24.938 77.476 24.9381C75.5136 24.9381 73.923 23.3441 73.923 21.3781C73.923 19.412 75.5136 17.818 77.476 17.818C78.1056 17.8181 78.7239 17.9856 79.2674 18.3034C79.811 18.6213 80.2602 19.078 80.569 19.6267L83.9703 17.7387C82.6963 15.4618 80.2662 13.9222 77.476 13.9222C73.3662 13.9222 70.0347 17.26 70.0347 21.3781C70.0347 25.4957 73.3662 28.8339 77.476 28.8339C80.2662 28.8339 82.6963 27.2943 83.9703 25.0174L80.569 23.1295ZM46.1187 28.542H50.3708V7.71564H46.1191L46.1187 28.542ZM86.1177 7.71564V28.542H90.3698V22.3024L95.4085 28.542H100.844L94.4361 21.1295L100.377 14.2129H95.1754L90.3698 19.9633V7.71564H86.1177ZM63.471 14.2137V15.9067C62.7722 14.7392 61.0538 13.9222 59.2481 13.9222C55.5202 13.9222 52.5788 17.2199 52.5788 21.3634C52.5788 25.507 55.5202 28.8339 59.2481 28.8339C61.0538 28.8339 62.7722 28.0169 63.471 26.8495V28.542H67.7232V14.2137H63.471ZM63.471 23.1583C62.8595 24.1795 61.578 24.9377 60.1512 24.9377C58.1884 24.9377 56.5978 23.3441 56.5978 21.3781C56.5978 19.412 58.1884 17.818 60.1512 17.818C61.578 17.818 62.8595 18.6058 63.471 19.6559V23.1583Z" fill="#E6E6E6"/>
<path d="M9.39838 7.25311C8.0204 7.25311 6.90348 8.37254 6.90348 9.75302C6.90315 10.081 6.96742 10.4058 7.09263 10.7089C7.21783 11.0121 7.40151 11.2876 7.63318 11.5197C7.86485 11.7518 8.13998 11.9361 8.44285 12.0619C8.74573 12.1877 9.07042 12.2526 9.39838 12.2529H11.8937V9.75302C11.8942 9.09063 11.6317 8.45514 11.1637 7.98633C10.6958 7.51752 10.0608 7.25378 9.39838 7.25311ZM9.39838 13.9195H2.7449C1.36692 13.9195 0.25 15.039 0.25 16.4199C0.25 17.8004 1.36692 18.9198 2.7449 18.9198H9.3988C10.7764 18.9198 11.8937 17.8004 11.8937 16.4199C11.8937 15.039 10.7764 13.9195 9.39838 13.9195Z" fill="#E6E6E6"/>
<path d="M25.2003 16.4199C25.2003 15.039 24.083 13.9195 22.705 13.9195C21.327 13.9195 20.2101 15.039 20.2101 16.4199V18.9198H22.705C23.3674 18.9191 24.0024 18.6554 24.4704 18.1866C24.9383 17.7177 25.2009 17.0823 25.2003 16.4199ZM18.5469 16.4199V9.75302C18.5474 9.09063 18.2848 8.45514 17.8169 7.98633C17.3489 7.51752 16.7139 7.25378 16.0515 7.25311C14.6736 7.25311 13.5566 8.37254 13.5566 9.75302V16.4194C13.5566 17.8008 14.6736 18.9202 16.0515 18.9202C16.7139 18.9195 17.3489 18.6558 17.8169 18.187C18.2848 17.7182 18.5474 17.0827 18.5469 16.4203" fill="#E6E6E6"/>
<path d="M16.0515 32.2542C16.7139 32.2535 17.3489 31.9898 17.8169 31.5209C18.2848 31.0521 18.5474 30.4166 18.5469 29.7542C18.5474 29.0919 18.2848 28.4564 17.8169 27.9876C17.3489 27.5187 16.7139 27.255 16.0515 27.2543H13.5566V29.7542C13.5566 31.1347 14.6736 32.2542 16.0515 32.2542ZM16.0515 25.5877H22.7054C24.083 25.5877 25.2003 24.4683 25.2003 23.0874C25.2009 22.425 24.9383 21.7895 24.4704 21.3207C24.0024 20.8519 23.3674 20.5882 22.705 20.5875H16.0515C14.6736 20.5875 13.5566 21.7069 13.5566 23.0874C13.5563 23.4154 13.6206 23.7402 13.7458 24.0433C13.871 24.3464 14.0547 24.6219 14.2863 24.8541C14.518 25.0862 14.7931 25.2704 15.096 25.3963C15.3989 25.5221 15.7236 25.587 16.0515 25.5873" fill="#E6E6E6"/>
<path d="M0.250001 23.0874C0.249672 23.4154 0.313943 23.7402 0.439145 24.0433C0.564348 24.3464 0.748029 24.6219 0.979702 24.8541C1.21137 25.0862 1.4865 25.2704 1.78937 25.3963C2.09225 25.5221 2.41694 25.587 2.7449 25.5873C3.40729 25.5867 4.04229 25.3229 4.51025 24.8541C4.9782 24.3853 5.24077 23.7498 5.24022 23.0874V20.5875H2.7449C1.36692 20.5875 0.250001 21.7069 0.250001 23.0874ZM6.90348 23.0874V29.7538C6.90348 31.1347 8.0204 32.2542 9.39838 32.2542C10.0608 32.2535 10.6958 31.9898 11.1637 31.5209C11.6317 31.0521 11.8942 30.4166 11.8937 29.7542V23.0874C11.894 22.7594 11.8297 22.4346 11.7045 22.1314C11.5793 21.8282 11.3956 21.5527 11.1638 21.3206C10.9321 21.0884 10.657 20.9042 10.354 20.7784C10.0511 20.6527 9.72638 20.5878 9.39838 20.5875C8.0204 20.5875 6.90348 21.7069 6.90348 23.0874Z" fill="#E6E6E6"/>
</g>
<defs>
<clipPath id="clip0_92_36102">
<rect width="100.833" height="40" fill="white" transform="translate(0.25)"/>
</clipPath>
</defs>
</svg>
