<svg width="112" height="40" viewBox="0 0 112 40" fill="none" xmlns="http://www.w3.org/2000/svg">
<g clip-path="url(#clip0_92_36113)">
<path d="M13.1123 5H0.916504V34.1667L13.1123 5Z" fill="#E6E6E6"/>
<path d="M21.6938 5H33.8738V34.1667L21.6938 5Z" fill="#E6E6E6"/>
<path d="M17.402 15.75L25.1644 34.1669H20.0716L17.7516 28.3033H12.0708L17.402 15.75Z" fill="#E6E6E6"/>
<path d="M53.7696 23.5474L55.2077 27.671C55.2554 27.7743 55.3269 27.8219 55.454 27.8219H58.2189C58.3699 27.8219 58.3937 27.7504 58.3699 27.5995L52.6573 11.733C52.6335 11.6059 52.6096 11.582 52.4825 11.582H49.0502C48.9549 11.582 48.8993 11.6535 48.8993 11.7568C48.8516 12.5911 48.7801 12.8453 48.6768 13.0916L43.584 27.5756C43.5601 27.7504 43.6157 27.8219 43.7587 27.8219H46.2297C46.3807 27.8219 46.4522 27.7743 46.5078 27.6233L47.8664 23.5474H53.7696ZM48.653 20.854C49.3998 18.5976 50.385 15.7056 50.7823 14.053H50.8061C51.2987 15.785 52.4587 19.2173 52.9831 20.854H48.653Z" fill="#E6E6E6"/>
<path d="M65.7135 28.0675C67.1993 28.0675 68.7803 27.7973 70.3853 27.1061C70.5124 27.0584 70.5362 27.0028 70.5362 26.8836C70.4885 26.4387 70.4329 25.7952 70.4329 25.3026V10.3657C70.4329 10.2703 70.4329 10.2227 70.3138 10.2227H67.6204C67.5171 10.2227 67.4694 10.2703 67.4694 10.3975V15.4585C67.0483 15.4108 66.7543 15.387 66.4047 15.387C62.0587 15.387 59.3892 18.2552 59.3892 21.8385C59.3892 25.9938 62.1302 28.0675 65.7135 28.0675ZM67.4694 25.3026C67.0245 25.4456 66.5319 25.5012 66.0313 25.5012C64.0609 25.5012 62.448 24.3889 62.448 21.6875C62.448 19.296 64.1086 17.8818 66.3094 17.8818C66.7543 17.8818 67.1436 17.9295 67.4694 18.0566V25.3026Z" fill="#E6E6E6"/>
<path d="M79.1281 15.3867C75.4177 15.3867 73.1216 18.2311 73.1216 21.7428C73.1216 24.8812 74.949 28.0672 79.0725 28.0672C82.5604 28.0672 85.0075 25.5009 85.0075 21.6634C85.0075 18.2788 82.9338 15.3867 79.1281 15.3867ZM78.9772 17.8815C81.0747 17.8815 81.9645 19.685 81.9645 21.7428C81.9645 24.2853 80.6536 25.5486 79.1281 25.5486C77.2451 25.5486 76.1328 23.9675 76.1328 21.6872C76.1328 19.3434 77.3166 17.8815 78.9772 17.8815Z" fill="#E6E6E6"/>
<path d="M87.7925 10.2227C87.6892 10.2227 87.6177 10.2703 87.6177 10.3975V27.3047C87.6177 27.3763 87.6892 27.5034 87.7925 27.5272C88.9763 27.8927 90.2157 28.0675 91.4949 28.0675C95.1576 28.0675 98.717 25.7952 98.717 21.2188C98.717 17.9056 96.4447 15.387 92.8853 15.387C92.067 15.387 91.3042 15.5141 90.6368 15.7366L90.605 10.4213C90.605 10.2465 90.5574 10.2227 90.3826 10.2227H87.7925ZM95.6741 21.5207C95.6741 24.2617 93.799 25.5489 91.773 25.5489C91.3519 25.5489 90.9785 25.525 90.6368 25.4217V18.2075C91.0261 18.0566 91.4949 17.9295 92.3609 17.9295C94.3154 17.9295 95.6741 19.1689 95.6741 21.5207Z" fill="#E6E6E6"/>
<path d="M108.769 22.4102C109.977 22.4102 110.97 22.3864 111.312 22.3069C111.439 22.2831 111.487 22.2354 111.51 22.1322C111.582 21.862 111.614 21.2979 111.614 20.6067C111.614 18.2549 110.199 15.3867 106.545 15.3867C102.81 15.3867 100.737 18.4297 100.737 21.862C100.737 24.905 102.342 28.0672 106.839 28.0672C108.523 28.0672 109.612 27.7971 110.549 27.3521C110.644 27.3044 110.692 27.225 110.692 27.082V25.0242C110.692 24.905 110.621 24.8812 110.549 24.9289C109.612 25.3261 108.595 25.5247 107.482 25.5247C104.964 25.5247 103.82 24.1343 103.748 22.4102H108.769ZM103.748 20.2809C103.947 19.0733 104.709 17.7623 106.418 17.7623C108.301 17.7623 108.793 19.3434 108.793 20.0585C108.793 20.0823 108.793 20.1856 108.793 20.2571C108.69 20.2809 108.372 20.2809 107.435 20.2809H103.748Z" fill="#E6E6E6"/>
</g>
<defs>
<clipPath id="clip0_92_36113">
<rect width="110.833" height="40" fill="white" transform="translate(0.916504)"/>
</clipPath>
</defs>
</svg>
