<svg width="118" height="40" viewBox="0 0 118 40" fill="none" xmlns="http://www.w3.org/2000/svg">
<g clip-path="url(#clip0_92_36096)">
<path d="M18.2293 2.56561C8.56437 2.56561 0.729004 10.4008 0.729004 20.0657C0.729004 29.7311 8.56437 37.5656 18.2293 37.5656C27.8953 37.5656 35.7299 29.7311 35.7299 20.0657C35.7299 10.4014 27.8953 2.56645 18.2291 2.56645L18.2293 2.56561ZM26.2549 27.8058C25.9414 28.3199 25.2685 28.4829 24.7544 28.1673C20.6455 25.6575 15.4729 25.0891 9.38126 26.4809C8.79425 26.6146 8.20911 26.2468 8.07537 25.6596C7.941 25.0724 8.30733 24.4872 8.89581 24.3535C15.5622 22.8305 21.2804 23.4862 25.8933 26.3053C26.4074 26.6209 26.5704 27.2917 26.2549 27.8058ZM28.3969 23.0407C28.0019 23.6827 27.1618 23.8854 26.5203 23.4904C21.8162 20.599 14.6456 19.7617 9.08159 21.4506C8.35999 21.6686 7.59786 21.2619 7.37885 20.5416C7.16151 19.82 7.56839 19.0593 8.28873 18.8399C14.6443 16.9114 22.5455 17.8456 27.9476 21.1651C28.5891 21.5601 28.7918 22.4002 28.3969 23.0409V23.0407ZM28.5808 18.0788C22.9405 14.7287 13.6348 14.4206 8.24965 16.055C7.38491 16.3173 6.47043 15.8291 6.20837 14.9644C5.94631 14.0992 6.43407 13.1854 7.29944 12.9225C13.4812 11.0459 23.7576 11.4085 30.2513 15.2634C31.0308 15.7251 31.2858 16.7296 30.8239 17.5064C30.3642 18.2842 29.3569 18.5406 28.5816 18.0788H28.5808ZM48.3416 18.7207C45.3198 18.0002 44.7827 17.4945 44.7827 16.4318C44.7827 15.4279 45.7273 14.7523 47.1337 14.7523C48.4963 14.7523 49.8462 15.2653 51.2631 16.3215C51.3049 16.3535 51.3592 16.3662 51.4115 16.3578C51.4658 16.3499 51.5118 16.3209 51.5431 16.2772L53.0185 14.1974C53.0791 14.1118 53.0624 13.9937 52.9809 13.9283C51.2944 12.5756 49.3969 11.9179 47.1776 11.9179C43.9155 11.9179 41.6355 13.8758 41.6355 16.6772C41.6355 19.6812 43.602 20.7449 47 21.566C49.8901 22.232 50.3791 22.7899 50.3791 23.7872C50.3791 24.8927 49.3928 25.5802 47.8045 25.5802C46.0408 25.5802 44.6009 24.9846 42.9918 23.5928C42.9521 23.5573 42.8978 23.5427 42.8476 23.5448C42.7933 23.5489 42.7452 23.574 42.7118 23.6137L41.0567 25.5823C40.9877 25.6659 40.9961 25.7871 41.0755 25.8581C42.9479 27.5299 45.2508 28.4118 47.7377 28.4118C51.2527 28.4118 53.5242 26.4913 53.5242 23.5176C53.5305 21.0084 52.028 19.6187 48.3479 18.7235L48.3416 18.7207ZM61.4779 15.7407C59.9544 15.7407 58.7048 16.3409 57.6724 17.5707V16.1865C57.6724 16.0772 57.5846 15.9882 57.476 15.9882H54.7697C54.6611 15.9882 54.5733 16.0772 54.5733 16.1865V31.5674C54.5733 31.676 54.6611 31.7659 54.7697 31.7659H57.476C57.5846 31.7659 57.6724 31.676 57.6724 31.5674V26.7128C58.7048 27.8685 59.9544 28.4348 61.4779 28.4348C64.3095 28.4348 67.1767 26.2552 67.1767 22.0884C67.1809 17.9208 64.3137 15.7405 61.48 15.7405L61.4779 15.7407ZM64.0295 22.0884C64.0295 24.2093 62.7234 25.6909 60.851 25.6909C59.0015 25.6909 57.6055 24.1424 57.6055 22.0884C57.6055 20.0342 59.0015 18.4861 60.851 18.4861C62.692 18.4859 64.0295 20.0005 64.0295 22.0882V22.0884ZM74.5222 15.7407C70.8756 15.7407 68.0188 18.5485 68.0188 22.1337C68.0188 25.6805 70.8568 28.4578 74.4783 28.4578C78.1375 28.4578 81.0026 25.6596 81.0026 22.0884C81.0026 18.5293 78.1563 15.7412 74.5222 15.7412V15.7407ZM74.5222 25.7118C72.5829 25.7118 71.1201 24.1529 71.1201 22.0874C71.1201 20.0124 72.5327 18.5068 74.4783 18.5068C76.4302 18.5068 77.9014 20.0651 77.9014 22.1327C77.9014 24.2072 76.4803 25.7118 74.5222 25.7118ZM88.789 15.9882H85.8111V12.9442C85.8111 12.8351 85.7234 12.7461 85.6147 12.7461H82.9084C82.7998 12.7461 82.7099 12.8351 82.7099 12.9442V15.9882H81.4101C81.3014 15.9882 81.2136 16.0772 81.2136 16.1865V18.5118C81.2136 18.6209 81.3014 18.7101 81.4101 18.7101H82.7099V24.7276C82.7099 27.158 83.9199 28.3909 86.3085 28.3909C87.2781 28.3909 88.0827 28.1903 88.8413 27.7598C88.904 27.7264 88.9416 27.6595 88.9416 27.5884V25.3733C88.9416 25.3064 88.9061 25.2416 88.8475 25.2061C88.789 25.1685 88.7159 25.1664 88.6553 25.1978C88.1349 25.459 87.6313 25.5802 87.0671 25.5802C86.1998 25.5802 85.8111 25.1852 85.8111 24.3033V18.7111H88.789C88.8977 18.7111 88.9855 18.6221 88.9855 18.5128V16.1877C88.9896 16.0784 88.9019 15.9894 88.7911 15.9894L88.789 15.9882ZM99.1626 16.0001V15.6262C99.1626 14.5264 99.5848 14.0359 100.529 14.0359C101.094 14.0359 101.547 14.1479 102.055 14.3172C102.118 14.3368 102.182 14.327 102.232 14.2896C102.285 14.2522 102.314 14.1922 102.314 14.1287V11.8488C102.314 11.7616 102.26 11.6845 102.174 11.6588C101.639 11.4994 100.954 11.3357 99.9254 11.3357C97.4281 11.3357 96.1053 12.743 96.1053 15.4039V15.9765H94.8055C94.6968 15.9765 94.6069 16.0655 94.6069 16.1746V18.5118C94.6069 18.6209 94.6968 18.7101 94.8055 18.7101H96.1053V27.9897C96.1053 28.1004 96.1952 28.1882 96.3038 28.1882H99.008C99.1188 28.1882 99.2065 28.1004 99.2065 27.9897V18.7107H101.733L105.603 27.9897C105.164 28.9635 104.732 29.1579 104.143 29.1579C103.666 29.1579 103.162 29.0158 102.65 28.7336C102.602 28.7086 102.544 28.7044 102.494 28.719C102.441 28.7378 102.398 28.7754 102.377 28.8256L101.459 30.838C101.415 30.9342 101.453 31.0449 101.545 31.0951C102.502 31.6133 103.365 31.8349 104.433 31.8349C106.431 31.8349 107.536 30.9028 108.508 28.3993L113.202 16.2709C113.227 16.2099 113.218 16.1409 113.181 16.0868C113.145 16.0331 113.085 16.0007 113.02 16.0007H110.203C110.117 16.0007 110.042 16.0544 110.015 16.1336L107.129 24.3744L103.969 16.1282C103.94 16.0515 103.867 16.0007 103.785 16.0007H99.1626V16.0001ZM93.1483 15.9882H90.442C90.3334 15.9882 90.2435 16.0772 90.2435 16.1865V27.9897C90.2435 28.1004 90.3334 28.1882 90.442 28.1882H93.1483C93.257 28.1882 93.3468 28.1004 93.3468 27.9897V16.1873C93.3468 16.078 93.259 15.989 93.1483 15.989V15.9882ZM91.8108 10.6135C90.7388 10.6135 89.8694 11.4812 89.8694 12.553C89.8694 13.6255 90.7388 14.4942 91.8108 14.4942C92.8829 14.4942 93.7501 13.6255 93.7501 12.553C93.7501 11.4814 92.8808 10.6135 91.8108 10.6135ZM115.513 19.7834C114.443 19.7834 113.609 18.9235 113.609 17.8792C113.609 16.8349 114.453 15.9652 115.523 15.9652C116.593 15.9652 117.427 16.8249 117.427 17.8683C117.427 18.9126 116.583 19.7834 115.513 19.7834ZM115.523 16.1545C114.547 16.1545 113.81 16.9298 113.81 17.8792C113.81 18.8282 114.543 19.593 115.513 19.593C116.489 19.593 117.227 18.8183 117.227 17.8683C117.227 16.9194 116.493 16.1545 115.523 16.1545ZM115.946 18.0641L116.485 18.8181H116.029L115.544 18.1264H115.128V18.8181H114.748V16.8195H115.638C116.104 16.8195 116.409 17.0571 116.409 17.4571C116.412 17.7847 116.221 17.9849 115.948 18.0641H115.946ZM115.624 17.1624H115.128V17.7946H115.624C115.87 17.7946 116.019 17.6736 116.019 17.4782C116.019 17.2725 115.87 17.1624 115.624 17.1624Z" fill="#E6E6E6"/>
</g>
<defs>
<clipPath id="clip0_92_36096">
<rect width="116.667" height="40" fill="white" transform="translate(0.666992)"/>
</clipPath>
</defs>
</svg>
