<svg width="81" height="40" viewBox="0 0 81 40" fill="none" xmlns="http://www.w3.org/2000/svg">
<g clip-path="url(#clip0_92_36093)">
<path d="M0.66748 29.4959L8.87951 16.7177H1.6403C1.57895 16.3496 1.55266 15.9464 1.55266 15.4995C1.55266 15.07 1.57895 14.6756 1.6403 14.3163H13.358L13.507 14.7107L5.23361 27.5152H12.9899C13.0513 27.9183 13.0775 28.339 13.0775 28.7597C13.0775 29.1628 13.0513 29.5484 12.9899 29.9165H0.816471L0.66748 29.4959Z" fill="#E6E6E6"/>
<path d="M24.3659 19.6363C24.3659 18.4356 24.0591 17.6118 23.4544 17.1385C22.8497 16.674 21.9645 16.4374 20.8076 16.4374C20.0977 16.4374 19.4316 16.49 18.8181 16.6039C18.1959 16.7179 17.5999 16.8581 17.004 17.0421C16.6183 16.3761 16.4255 15.5698 16.4255 14.6407C17.1179 14.4216 17.8716 14.2464 18.7042 14.1237C19.5368 14.001 20.3343 13.9396 21.1056 13.9396C23.1301 13.9396 24.6726 14.4041 25.7331 15.3244C26.7848 16.2446 27.3194 17.7257 27.3194 19.7503V29.5136C26.6095 29.6713 25.7506 29.8466 24.734 30.0131C23.7173 30.1884 22.6831 30.2673 21.6314 30.2673C20.6411 30.2673 19.7384 30.1796 18.9408 29.9956C18.1433 29.8115 17.4597 29.5223 16.8988 29.1104C16.3379 28.7073 15.9084 28.1902 15.6017 27.5591C15.2949 26.9281 15.146 26.1656 15.146 25.2805C15.146 24.4128 15.3212 23.6416 15.6806 22.9842C16.0311 22.3269 16.5132 21.7748 17.1267 21.3453C17.7314 20.9071 18.4325 20.5829 19.2301 20.3725C20.0188 20.1622 20.8514 20.0482 21.7278 20.0482C22.3764 20.0482 22.911 20.0658 23.3229 20.0921C23.7348 20.1184 24.0854 20.1622 24.3746 20.1972V19.6363H24.3659ZM24.3659 22.5899C24.0591 22.546 23.6735 22.511 23.209 22.4672C22.7445 22.4233 22.3501 22.4058 22.0258 22.4058C20.7638 22.4058 19.8085 22.6424 19.1512 23.1069C18.4939 23.5714 18.1608 24.2813 18.1608 25.2366C18.1608 25.8414 18.2748 26.3234 18.4939 26.6652C18.713 27.007 18.9934 27.2699 19.3265 27.454C19.6595 27.638 20.0276 27.752 20.4395 27.787C20.8427 27.8308 21.2283 27.8484 21.5964 27.8484C22.0609 27.8484 22.5429 27.8221 23.0425 27.7695C23.542 27.7169 23.9802 27.6468 24.3659 27.5416V22.5899Z" fill="#E6E6E6"/>
<path d="M30.6059 14.317C30.8075 14.2731 31.0178 14.2469 31.2281 14.2293C31.4385 14.2118 31.6576 14.203 31.8855 14.203C32.087 14.203 32.2974 14.2118 32.5252 14.2293C32.7443 14.2469 32.9634 14.2819 33.165 14.317C33.1825 14.3608 33.2088 14.4835 33.2439 14.6938C33.2702 14.9042 33.3052 15.132 33.3315 15.3774C33.3578 15.6228 33.3929 15.8507 33.4192 16.0786C33.4455 16.3064 33.463 16.4467 33.463 16.508C33.6646 16.1837 33.91 15.8682 34.1904 15.5615C34.4709 15.2547 34.8127 14.983 35.2071 14.7376C35.6015 14.4923 36.0484 14.2994 36.548 14.1592C37.0476 14.019 37.5997 13.9489 38.2044 13.9489C39.1159 13.9489 39.966 14.0979 40.746 14.4046C41.526 14.7114 42.1921 15.1759 42.753 15.8156C43.3139 16.4554 43.7434 17.2705 44.0589 18.2521C44.3744 19.2337 44.5322 20.3993 44.5322 21.7402C44.5322 24.4221 43.8047 26.5167 42.3586 28.0241C40.9038 29.5316 38.853 30.2941 36.1974 30.2941C35.7505 30.2941 35.2947 30.2678 34.8302 30.2064C34.3657 30.1451 33.9538 30.0662 33.612 29.961V37.1126C33.3666 37.1564 33.1124 37.1827 32.832 37.2002C32.5603 37.2178 32.3061 37.2265 32.087 37.2265C31.8679 37.2265 31.6138 37.2178 31.3421 37.2002C31.0704 37.1827 30.8162 37.1476 30.5971 37.1126V14.317H30.6059ZM33.6208 27.3668C34.0064 27.5071 34.4008 27.6122 34.8039 27.6736C35.2071 27.7349 35.7329 27.7612 36.3902 27.7612C37.1177 27.7612 37.7925 27.6473 38.3972 27.4106C39.002 27.174 39.5278 26.8147 39.966 26.3327C40.4042 25.8419 40.746 25.2284 41.0002 24.4922C41.2544 23.756 41.377 22.8708 41.377 21.8629C41.377 20.2416 41.0791 18.9532 40.4831 17.9979C39.8871 17.0426 38.9056 16.5694 37.5471 16.5694C37.0388 16.5694 36.5568 16.657 36.0835 16.8411C35.619 17.0251 35.1983 17.2968 34.839 17.6649C34.4709 18.033 34.1817 18.4887 33.9538 19.0496C33.7259 19.6105 33.6208 20.2678 33.6208 21.0391V27.3668Z" fill="#E6E6E6"/>
<path d="M48.2832 16.6826H46.3025C46.2587 16.5161 46.2324 16.3321 46.2149 16.1217C46.1973 15.9114 46.1886 15.701 46.1886 15.4995C46.1886 15.2979 46.1973 15.0876 46.2149 14.8772C46.2324 14.6669 46.2674 14.4741 46.3025 14.3163H51.2367V29.9253C51.0176 29.9691 50.7635 29.9954 50.4918 30.0129C50.2201 30.0305 49.9659 30.0392 49.7468 30.0392C49.5452 30.0392 49.3086 30.0305 49.0282 30.0129C48.7565 29.9954 48.5023 29.9604 48.2832 29.9253V16.6826Z" fill="#E6E6E6"/>
<path d="M57.7134 22.8618C57.7573 24.562 58.1955 25.8153 59.0368 26.6041C59.8782 27.3928 61.1227 27.7872 62.7616 27.7872C64.1989 27.7872 65.5749 27.5331 66.872 27.0248C67.0385 27.3315 67.17 27.6996 67.2664 28.1378C67.3716 28.576 67.4241 29.0055 67.4504 29.4349C66.7844 29.7154 66.0482 29.9345 65.2419 30.0747C64.4443 30.2149 63.5504 30.285 62.5776 30.285C61.1578 30.285 59.9395 30.0835 58.9229 29.6891C57.9062 29.2947 57.0737 28.7338 56.4163 28.0151C55.759 27.2964 55.277 26.4463 54.9703 25.456C54.6635 24.4744 54.5145 23.3964 54.5145 22.2132C54.5145 21.0563 54.6635 19.9784 54.9527 18.9705C55.2419 17.9626 55.6977 17.0949 56.3024 16.35C56.9071 15.6138 57.6784 15.0178 58.5986 14.5884C59.5189 14.1502 60.6144 13.9311 61.8677 13.9311C62.9456 13.9311 63.8834 14.1151 64.6985 14.4832C65.5135 14.8513 66.1884 15.3509 66.7405 15.9907C67.2839 16.6304 67.7046 17.3929 67.985 18.2693C68.2655 19.1545 68.4145 20.1098 68.4145 21.144C68.4145 21.4244 68.4057 21.7312 68.3794 22.0379C68.3619 22.3534 68.3356 22.6251 68.3181 22.8442H57.7134V22.8618ZM65.4434 20.6094C65.4434 20.0397 65.3646 19.4963 65.2156 18.9792C65.0666 18.4622 64.8387 18.0152 64.5495 17.6296C64.2515 17.2439 63.8834 16.9372 63.4277 16.7006C62.9719 16.4639 62.4286 16.35 61.7975 16.35C60.5618 16.35 59.6153 16.7268 58.9492 17.4718C58.2919 18.2255 57.8887 19.2685 57.7485 20.6094H65.4434Z" fill="#E6E6E6"/>
<path d="M71.7449 14.3163C71.964 14.2725 72.1831 14.2462 72.3847 14.2287C72.5863 14.2111 72.7966 14.2024 73.0245 14.2024C73.2436 14.2024 73.4715 14.2111 73.6906 14.2287C73.9097 14.2462 74.12 14.2813 74.2953 14.3163C74.3567 14.6231 74.418 15.0174 74.4794 15.517C74.5407 16.0166 74.567 16.4372 74.567 16.779C74.9964 16.0867 75.5574 15.4907 76.2585 14.9824C76.9596 14.4741 77.8536 14.2199 78.9491 14.2199C79.1156 14.2199 79.2821 14.2287 79.4486 14.2374C79.6239 14.2462 79.7642 14.2637 79.8869 14.2813C79.9307 14.4653 79.957 14.6581 79.9745 14.8597C79.992 15.0613 80.0008 15.2716 80.0008 15.4995C80.0008 15.7449 79.9833 15.999 79.957 16.262C79.9307 16.5249 79.8868 16.779 79.8518 17.0244C79.6853 16.9806 79.5188 16.9631 79.3522 16.9631C79.1769 16.9631 79.0455 16.9631 78.9403 16.9631C78.3969 16.9631 77.8711 17.042 77.3715 17.191C76.872 17.3399 76.425 17.6116 76.0306 17.9973C75.6362 18.3829 75.3207 18.9087 75.0841 19.5836C74.8475 20.2497 74.7335 21.1173 74.7335 22.169V29.9253C74.5144 29.9691 74.2602 29.9954 73.9886 30.0129C73.7169 30.0305 73.4627 30.0392 73.2436 30.0392C73.0245 30.0392 72.7703 30.0305 72.4987 30.0129C72.227 29.9954 71.964 29.9604 71.7186 29.9253V14.3163H71.7449Z" fill="#E6E6E6"/>
<path d="M54.1025 5.13179H51.1577L53.2436 3.04592C53.0771 2.81805 52.893 2.59895 52.7002 2.39737C52.4986 2.19579 52.2883 2.01175 52.0517 1.85399L49.9658 3.93986V0.995101C49.6941 0.95128 49.4137 0.924988 49.1244 0.924988H49.1157C48.8265 0.924988 48.546 0.95128 48.2743 0.995101V3.93986L46.1884 1.85399C45.9606 2.02051 45.7415 2.20456 45.5399 2.39737C45.3383 2.59895 45.163 2.80929 44.9965 3.04592L47.0912 5.13179H44.1464C44.1464 5.13179 44.0763 5.68394 44.0763 5.97315C44.0763 6.26237 44.1026 6.54282 44.1464 6.81451H47.0912L45.0053 8.90039C45.3296 9.35612 45.7327 9.75928 46.1972 10.0923L48.2831 8.00644V10.9512C48.5548 10.995 48.8352 11.0213 49.1244 11.0213H49.1332C49.4224 11.0213 49.7029 10.995 49.9746 10.9512V8.00644L52.0604 10.0923C52.2883 9.9258 52.5074 9.74175 52.709 9.54894C52.9106 9.34736 53.0946 9.13702 53.2524 8.90039L51.1665 6.81451H54.1113C54.1551 6.54282 54.1814 6.26237 54.1814 5.97315V5.96439C54.1726 5.68394 54.1551 5.40348 54.1025 5.13179ZM50.3865 5.98192C50.3865 6.35878 50.3164 6.71811 50.1937 7.05115C49.8606 7.17385 49.5013 7.24396 49.1244 7.24396C48.7476 7.24396 48.3882 7.17385 48.0552 7.05115C47.9325 6.71811 47.8624 6.35878 47.8624 5.98192V5.97315C47.8624 5.59629 47.9325 5.23696 48.0552 4.90392C48.3882 4.78123 48.7476 4.71111 49.1244 4.71111C49.5013 4.71111 49.8606 4.78123 50.1937 4.90392C50.3164 5.23696 50.3865 5.59629 50.3865 5.98192Z" fill="#E6E6E6"/>
</g>
<defs>
<clipPath id="clip0_92_36093">
<rect width="80" height="40" fill="white" transform="translate(0.666504)"/>
</clipPath>
</defs>
</svg>
