<svg width="83" height="40" viewBox="0 0 83 40" fill="none" xmlns="http://www.w3.org/2000/svg">
<g clip-path="url(#clip0_92_36099)">
<path fill-rule="evenodd" clip-rule="evenodd" d="M66.9227 17.1665C67.2346 17.7045 67.3366 18.3166 67.3703 19.0048L67.4145 19.922V26.336L67.4598 27.2542C67.5502 28.7538 68.6561 29.8625 70.1672 29.9569L71.0806 30.0021V19.922L71.1259 19.0048C71.1634 18.3243 71.2645 17.7006 71.5811 17.1588C71.9038 16.603 72.367 16.1418 72.9242 15.8217C73.4815 15.5015 74.1131 15.3336 74.7558 15.3347C75.3985 15.3359 76.0295 15.5061 76.5856 15.8283C77.1417 16.1505 77.6032 16.6133 77.9239 17.1703C78.2357 17.7083 78.3329 18.332 78.3704 19.0048L78.4157 19.9192V26.336L78.4609 27.2542C78.5552 28.7615 79.6525 29.8702 81.1684 29.9569L82.0818 30.0021V19.0048C82.0818 17.0602 81.3095 15.1951 79.9347 13.8198C78.5599 12.4445 76.6952 11.6715 74.7506 11.6707C73.7097 11.6696 72.6807 11.8906 71.7321 12.319C70.7835 12.7474 69.9373 13.3733 69.25 14.1549C68.5623 13.3736 67.7161 12.7479 66.7676 12.3193C65.8191 11.8908 64.7902 11.6694 63.7494 11.6697C62.2268 11.6697 60.8138 12.1317 59.6435 12.9296C58.9293 12.1327 57.3316 11.6697 56.4143 11.6697V30.0021L57.3316 29.9569C58.8658 29.8558 59.9746 28.7769 60.0342 27.2542L60.0833 26.336V19.922L60.1286 19.0048C60.167 18.3128 60.2633 17.7045 60.5761 17.1626C60.899 16.6072 61.362 16.1461 61.9189 15.8256C62.4757 15.505 63.1069 15.3361 63.7494 15.3358C64.3924 15.336 65.0241 15.5052 65.581 15.8265C66.138 16.1478 66.6007 16.6099 66.9227 17.1665ZM4.16609 29.9578L5.08333 30.0021H18.8324L18.7871 29.0877C18.663 27.5805 17.5956 26.4794 16.0835 26.3812L15.1663 26.336H6.91782L17.9151 15.3349L17.8699 14.4215C17.7987 12.8988 16.686 11.7987 15.1663 11.715L14.249 11.6736L0.5 11.6697L0.545237 12.587C0.665547 14.0798 1.74834 15.204 3.24788 15.2906L4.16609 15.3358H12.4145L1.41724 26.337L1.46248 27.2542C1.55295 28.7653 2.64344 29.8597 4.16609 29.9569V29.9578ZM52.8156 14.3531C53.6669 15.2043 54.3423 16.2148 54.803 17.3269C55.2637 18.4391 55.5009 19.6311 55.5009 20.835C55.5009 22.0388 55.2637 23.2308 54.803 24.343C54.3423 25.4551 53.6669 26.4656 52.8156 27.3168C51.0957 29.0353 48.7638 30.0007 46.3324 30.0007C43.901 30.0007 41.569 29.0353 39.8491 27.3168C36.2696 23.7373 36.2696 17.9326 39.8491 14.3531C40.6996 13.5023 41.7094 12.8273 42.8209 12.3667C43.9323 11.9061 45.1235 11.669 46.3266 11.6688C47.5316 11.6679 48.725 11.9047 49.8384 12.3654C50.9519 12.8262 51.9636 13.502 52.8156 14.3541V14.3531ZM50.2217 16.9489C51.2528 17.9807 51.8319 19.3797 51.8319 20.8383C51.8319 22.297 51.2528 23.6959 50.2217 24.7277C49.1899 25.7587 47.791 26.3379 46.3324 26.3379C44.8737 26.3379 43.4748 25.7587 42.443 24.7277C41.412 23.6959 40.8328 22.297 40.8328 20.8383C40.8328 19.3797 41.412 17.9807 42.443 16.9489C43.4748 15.9179 44.8737 15.3388 46.3324 15.3388C47.791 15.3388 49.1899 15.9179 50.2217 16.9489ZM27.0885 11.6688C28.2917 11.6691 29.483 11.9064 30.5944 12.3671C31.7058 12.8279 32.7156 13.5031 33.566 14.3541C37.1464 17.9326 37.1464 23.7383 33.566 27.3168C31.8461 29.0353 29.5141 30.0007 27.0827 30.0007C24.6514 30.0007 22.3194 29.0353 20.5995 27.3168C17.02 23.7373 17.02 17.9326 20.5995 14.3531C21.45 13.5023 22.4598 12.8273 23.5712 12.3667C24.6827 11.9061 25.8739 11.669 27.077 11.6688H27.0885ZM30.9721 16.947C32.0034 17.9788 32.5828 19.378 32.5828 20.8369C32.5828 22.2957 32.0034 23.6949 30.9721 24.7267C29.9403 25.7578 28.5414 26.3369 27.0827 26.3369C25.6241 26.3369 24.2252 25.7578 23.1934 24.7267C22.1623 23.6949 21.5832 22.296 21.5832 20.8374C21.5832 19.3787 22.1623 17.9798 23.1934 16.948C24.2252 15.917 25.6241 15.3378 27.0827 15.3378C28.5414 15.3378 29.9403 15.917 30.9721 16.948V16.947Z" fill="#E6E6E6"/>
</g>
<defs>
<clipPath id="clip0_92_36099">
<rect width="81.6666" height="40" fill="white" transform="translate(0.5)"/>
</clipPath>
</defs>
</svg>
