<svg width="92" height="40" viewBox="0 0 92 40" fill="none" xmlns="http://www.w3.org/2000/svg">
<g clip-path="url(#clip0_92_36109)">
<path fill-rule="evenodd" clip-rule="evenodd" d="M56.7783 31.505C51.4753 35.4137 43.789 37.4991 37.1712 37.4991C27.892 37.4991 19.5383 34.0671 13.2184 28.3589C12.7219 27.9101 13.1668 27.2983 13.7626 27.6479C20.583 31.6162 29.0161 34.0035 37.7273 34.0035C43.6023 34.0035 50.0651 32.788 56.0077 30.2656C56.9054 29.8843 57.6561 30.8535 56.7783 31.505Z" fill="#E6E6E6"/>
<path fill-rule="evenodd" clip-rule="evenodd" d="M58.9829 28.9826C58.3077 28.1167 54.5022 28.5735 52.7942 28.776C52.2738 28.8396 52.1944 28.3868 52.6631 28.061C55.6939 25.9279 60.6672 26.5436 61.2471 27.2586C61.8271 27.9776 61.0962 32.9628 58.2481 35.3422C57.8111 35.7076 57.394 35.513 57.5887 35.0284C58.2282 33.4315 59.6622 29.8525 58.9829 28.9826Z" fill="#E6E6E6"/>
<path fill-rule="evenodd" clip-rule="evenodd" d="M52.9147 13.003V10.9295C52.9147 10.6157 53.1531 10.4052 53.4391 10.4052H62.7223C63.0202 10.4052 63.2585 10.6197 63.2585 10.9295V12.7051C63.2545 13.003 63.0043 13.3923 62.5594 14.008L57.749 20.8761C59.5365 20.8324 61.4233 21.0985 63.044 22.0121C63.4095 22.2187 63.5088 22.5206 63.5366 22.8185V25.031C63.5366 25.3329 63.2029 25.6865 62.8533 25.5037C59.9973 24.0062 56.2038 23.8433 53.0458 25.5196C52.7241 25.6944 52.3864 25.3449 52.3864 25.043V22.9416C52.3864 22.604 52.3904 22.028 52.728 21.5156L58.3011 13.5234H53.451C53.1531 13.5234 52.9147 13.3129 52.9147 13.003Z" fill="#E6E6E6"/>
<path fill-rule="evenodd" clip-rule="evenodd" d="M19.0512 25.9407H16.2269C15.9568 25.9209 15.7423 25.7183 15.7224 25.4601V10.9653C15.7224 10.6753 15.9647 10.4449 16.2666 10.4449H18.9002C19.1743 10.4568 19.3928 10.6674 19.4126 10.9295V12.8243H19.4643C20.1515 10.9931 21.4425 10.1391 23.1823 10.1391C24.95 10.1391 26.0543 10.9931 26.8487 12.8243C27.5319 10.9931 29.0851 10.1391 30.7495 10.1391C31.9332 10.1391 33.2282 10.6276 34.0187 11.724C34.9124 12.9435 34.7297 14.7151 34.7297 16.2683L34.7257 25.4164C34.7257 25.7064 34.4834 25.9407 34.1815 25.9407H31.3612C31.0792 25.9209 30.8528 25.6944 30.8528 25.4164V17.734C30.8528 17.1223 30.9084 15.5969 30.7733 15.017C30.5628 14.0438 29.9312 13.7697 29.1129 13.7697C28.4297 13.7697 27.7147 14.2265 27.4247 14.9574C27.1347 15.6883 27.1625 16.9118 27.1625 17.734V25.4164C27.1625 25.7064 26.9202 25.9407 26.6183 25.9407H23.798C23.512 25.9209 23.2896 25.6944 23.2896 25.4164L23.2856 17.734C23.2856 16.1173 23.5517 13.7379 21.5458 13.7379C19.5159 13.7379 19.5954 16.0577 19.5954 17.734V25.4164C19.5954 25.7064 19.3531 25.9407 19.0512 25.9407Z" fill="#E6E6E6"/>
<path fill-rule="evenodd" clip-rule="evenodd" d="M71.2506 10.1391C75.4413 10.1391 77.7095 13.7379 77.7095 18.314C77.7095 22.7351 75.203 26.2426 71.2506 26.2426C67.1353 26.2426 64.895 22.6437 64.895 18.1591C64.895 13.6466 67.1631 10.1391 71.2506 10.1391ZM71.2744 13.0984C69.193 13.0984 69.0619 15.9346 69.0619 17.7022C69.0619 19.4739 69.0341 23.2555 71.2506 23.2555C73.4393 23.2555 73.5426 20.2048 73.5426 18.3457C73.5426 17.1223 73.491 15.6605 73.1215 14.5006C72.8037 13.4916 72.1722 13.0984 71.2744 13.0984Z" fill="#E6E6E6"/>
<path fill-rule="evenodd" clip-rule="evenodd" d="M83.1437 25.9407H80.3313C80.0493 25.9209 79.8229 25.6944 79.8229 25.4164L79.8189 10.9176C79.8427 10.6515 80.0771 10.4449 80.3631 10.4449H82.9808C83.2271 10.4568 83.4297 10.6237 83.4853 10.8501V13.0666H83.5369C84.3274 11.0845 85.4357 10.1391 87.386 10.1391C88.6532 10.1391 89.8886 10.5959 90.683 11.8471C91.4219 13.007 91.4219 14.9574 91.4219 16.3596V25.4839C91.3901 25.7381 91.1557 25.9407 90.8777 25.9407H88.0454C87.7872 25.9209 87.5727 25.7302 87.5449 25.4839V17.6109C87.5449 16.026 87.7277 13.7061 85.7773 13.7061C85.0901 13.7061 84.4585 14.1669 84.1447 14.866C83.7475 15.7519 83.6958 16.6337 83.6958 17.6109V25.4164C83.6918 25.7064 83.4455 25.9407 83.1437 25.9407Z" fill="#E6E6E6"/>
<path fill-rule="evenodd" clip-rule="evenodd" d="M45.5144 19.017C45.5144 20.1174 45.5422 21.0349 44.9861 22.0121C44.5373 22.8066 43.8223 23.2952 43.0318 23.2952C41.9473 23.2952 41.3118 22.4689 41.3118 21.2495C41.3118 18.8423 43.4687 18.4053 45.5144 18.4053V19.017ZM48.3625 25.901C48.1759 26.0678 47.9057 26.0797 47.6952 25.9685C46.7578 25.1899 46.5869 24.8285 46.0745 24.0856C44.5253 25.6666 43.425 26.1393 41.419 26.1393C39.0396 26.1393 37.1925 24.6735 37.1925 21.738C37.1925 19.446 38.4319 17.8849 40.2035 17.1223C41.7368 16.447 43.8779 16.3278 45.5144 16.1411V15.7757C45.5144 15.1044 45.5661 14.3099 45.1688 13.73C44.8272 13.2096 44.1678 12.9951 43.5839 12.9951C42.5074 12.9951 41.5501 13.5472 41.3158 14.6912C41.2681 14.9455 41.0814 15.1957 40.8232 15.2076L38.0863 14.9137C37.8559 14.8621 37.5977 14.6754 37.6652 14.3218C38.2929 11.001 41.2959 10 43.9811 10C45.3555 10 47.151 10.3654 48.2354 11.4062C49.6098 12.6892 49.4788 14.4013 49.4788 16.2643V20.6655C49.4788 21.9883 50.0269 22.5682 50.5433 23.2833C50.7221 23.5375 50.7618 23.8433 50.5314 24.034C49.9554 24.5147 48.9306 25.4084 48.3665 25.9089L48.3625 25.901Z" fill="#E6E6E6"/>
<path fill-rule="evenodd" clip-rule="evenodd" d="M8.48888 19.017C8.48888 20.1173 8.51668 21.0349 7.96057 22.0121C7.5117 22.8066 6.80067 23.2952 6.00622 23.2952C4.92179 23.2952 4.2902 22.4689 4.2902 21.2494C4.2902 18.8423 6.44714 18.4053 8.48888 18.4053V19.017ZM11.337 25.901C11.1503 26.0678 10.8802 26.0797 10.6696 25.9685C9.7322 25.1899 9.56536 24.8285 9.04897 24.0856C7.49978 25.6666 6.40344 26.1393 4.39348 26.1393C2.01806 26.1393 0.166992 24.6735 0.166992 21.738C0.166992 19.446 1.41031 17.8849 3.17797 17.1223C4.71126 16.447 6.85231 16.3278 8.48888 16.1411V15.7757C8.48888 15.1044 8.54052 14.3099 8.14727 13.73C7.80168 13.2096 7.14228 12.9951 6.56233 12.9951C5.48585 12.9951 4.52456 13.5472 4.2902 14.6912C4.24253 14.9455 4.05583 15.1957 3.80161 15.2076L1.06075 14.9137C0.830359 14.862 0.576134 14.6754 0.639691 14.3218C1.27128 11.001 4.27034 10 6.95559 10C8.32999 10 10.1254 10.3654 11.2099 11.4062C12.5843 12.6892 12.4532 14.4013 12.4532 16.2643V20.6655C12.4532 21.9883 13.0014 22.5682 13.5178 23.2832C13.7005 23.5375 13.7402 23.8433 13.5098 24.034C12.9338 24.5146 11.909 25.4084 11.3449 25.9089L11.337 25.901Z" fill="#E6E6E6"/>
</g>
<defs>
<clipPath id="clip0_92_36109">
<rect width="91.6666" height="40" fill="white" transform="translate(0.166992)"/>
</clipPath>
</defs>
</svg>
