<svg width="72" height="13" viewBox="0 0 72 13" fill="none" xmlns="http://www.w3.org/2000/svg">
<path d="M4.21427 0.14856C6.23485 0.14856 7.76513 1.24799 8.15142 3.01599L6.13085 3.43199C5.98227 2.49599 5.16513 1.88685 4.1697 1.88685C3.15942 1.88685 2.55027 2.45142 2.55027 3.11999C2.55027 3.62513 2.77313 3.9817 3.5457 4.13027L5.68513 4.56113C7.30456 4.90285 8.29999 5.86856 8.29999 7.4137C8.29999 9.34513 6.71027 10.5486 4.34799 10.5486C2.26799 10.5486 0.44056 9.58285 0.187988 7.59199L2.31256 7.16113C2.57999 8.29027 3.41199 8.78056 4.54113 8.78056C5.69999 8.78056 6.30913 8.23085 6.30913 7.5177C6.30913 6.95313 6.0417 6.61142 5.15027 6.43313L3.04056 6.03199C1.85199 5.77942 0.425703 5.1257 0.425703 3.17942C0.425703 1.39656 1.8817 0.14856 4.21427 0.14856Z" fill="white"/>
<path d="M17.5356 2.91199V12.8514H15.5744V9.74627C14.9504 10.2514 14.1333 10.5486 13.123 10.5486C11.2361 10.5486 9.48299 8.95885 9.48299 6.62627C9.48299 4.2937 11.2361 2.68913 13.123 2.68913C14.1333 2.68913 14.9504 2.98627 15.5744 3.50627V2.91199H17.5356ZM13.4647 8.83999C14.5196 8.83999 15.5744 7.99313 15.5744 6.62627C15.5744 5.25942 14.5196 4.3977 13.4647 4.3977C12.2761 4.3977 11.3847 5.25942 11.3847 6.62627C11.3847 7.99313 12.2761 8.83999 13.4647 8.83999Z" fill="white"/>
<path d="M26.6091 2.91199V10.3257H24.648V9.65713C24.0685 10.2366 23.296 10.5486 22.3154 10.5486C20.5325 10.5486 19.344 9.27085 19.344 7.42856V2.91199H21.3051V7.01256C21.3051 8.05256 21.8994 8.75085 22.8057 8.75085C23.92 8.75085 24.648 8.00799 24.648 6.19542V2.91199H26.6091Z" fill="white"/>
<path d="M36.1505 2.91199V10.3257H34.1894V9.74627C33.5654 10.2514 32.7482 10.5486 31.7379 10.5486C29.8511 10.5486 28.0979 8.95885 28.0979 6.62627C28.0979 4.2937 29.8511 2.68913 31.7379 2.68913C32.7482 2.68913 33.5654 2.98627 34.1894 3.50627V2.91199H36.1505ZM32.0797 8.83999C33.1345 8.83999 34.1894 7.99313 34.1894 6.62627C34.1894 5.25942 33.1345 4.3977 32.0797 4.3977C30.8911 4.3977 29.9997 5.25942 29.9997 6.62627C29.9997 7.99313 30.8911 8.83999 32.0797 8.83999Z" fill="white"/>
<path d="M42.8452 2.80799C43.0383 2.80799 43.1869 2.80799 43.3652 2.86742L43.2612 4.75427H42.8303C41.0177 4.75427 40.1857 5.86856 40.1857 7.9337V10.3257H38.2246V2.91199H40.1857V4.26399C40.78 3.40227 41.6417 2.80799 42.8452 2.80799Z" fill="white"/>
<path d="M51.5192 6.4777V7.14627H45.8735C46.0666 8.21599 46.8243 8.8697 47.7306 8.8697C48.31 8.8697 49.038 8.79542 49.5729 7.88913L51.326 8.26056C50.6723 9.8057 49.35 10.5486 47.7306 10.5486C45.6358 10.5486 43.9272 8.95885 43.9272 6.62627C43.9272 4.2937 45.6358 2.68913 47.7603 2.68913C49.7363 2.68913 51.4449 4.21942 51.5192 6.4777ZM47.7603 4.3977C47.0175 4.3977 46.1706 4.84342 45.9329 5.76456H49.5135C49.2609 4.8137 48.5478 4.3977 47.7603 4.3977Z" fill="white"/>
<path d="M61.5818 0.371417V5.86856C61.5818 8.6617 59.8732 10.5486 57.3029 10.5486C54.6732 10.5486 52.9201 8.6617 52.9201 5.86856V0.371417H54.9406V5.86856C54.9406 7.53256 55.8766 8.61713 57.3029 8.61713C58.6549 8.61713 59.5612 7.53256 59.5612 5.86856V0.371417H61.5818Z" fill="white"/>
<path d="M67.9843 2.68913C69.8711 2.68913 71.6243 4.2937 71.6243 6.62627C71.6243 8.95885 69.8711 10.5486 67.9843 10.5486C66.974 10.5486 66.1568 10.2514 65.5328 9.74627V12.8514H63.5717V2.91199H65.5328V3.50627C66.1568 2.98627 66.974 2.68913 67.9843 2.68913ZM67.6426 8.83999C68.8311 8.83999 69.7226 7.99313 69.7226 6.62627C69.7226 5.25942 68.8311 4.3977 67.6426 4.3977C66.5877 4.3977 65.5328 5.25942 65.5328 6.62627C65.5328 7.99313 66.5877 8.83999 67.6426 8.83999Z" fill="white"/>
</svg>
