<svg width="72" height="14" viewBox="0 0 72 14" fill="none" xmlns="http://www.w3.org/2000/svg">
<path d="M4.07316 0.833252C6.09373 0.833252 7.62402 1.93268 8.0103 3.70068L5.98973 4.11668C5.84116 3.18068 5.02402 2.57154 4.02859 2.57154C3.0183 2.57154 2.40916 3.13611 2.40916 3.80468C2.40916 4.30982 2.63202 4.6664 3.40459 4.81497L5.54402 5.24582C7.16345 5.58754 8.15888 6.55325 8.15888 8.0984C8.15888 10.0298 6.56916 11.2333 4.20688 11.2333C2.12688 11.2333 0.299446 10.2675 0.046875 8.27668L2.17145 7.84582C2.43888 8.97497 3.27088 9.46525 4.40002 9.46525C5.55888 9.46525 6.16802 8.91554 6.16802 8.2024C6.16802 7.63782 5.90059 7.29611 5.00916 7.11782L2.89945 6.71668C1.71088 6.46411 0.284589 5.8104 0.284589 3.86411C0.284589 2.08125 1.74059 0.833252 4.07316 0.833252Z" fill="white"/>
<path d="M17.3944 3.59668V13.5361H15.4333V10.431C14.8093 10.9361 13.9922 11.2333 12.9819 11.2333C11.095 11.2333 9.34188 9.64354 9.34188 7.31097C9.34188 4.97839 11.095 3.37382 12.9819 3.37382C13.9922 3.37382 14.8093 3.67097 15.4333 4.19097V3.59668H17.3944ZM13.3236 9.52468C14.3784 9.52468 15.4333 8.67782 15.4333 7.31097C15.4333 5.94411 14.3784 5.0824 13.3236 5.0824C12.135 5.0824 11.2436 5.94411 11.2436 7.31097C11.2436 8.67782 12.135 9.52468 13.3236 9.52468Z" fill="white"/>
<path d="M26.468 3.59668V11.0104H24.5068V10.3418C23.9274 10.9213 23.1548 11.2333 22.1743 11.2333C20.3914 11.2333 19.2028 9.95554 19.2028 8.11325V3.59668H21.164V7.69725C21.164 8.73725 21.7583 9.43554 22.6646 9.43554C23.7788 9.43554 24.5068 8.69268 24.5068 6.88011V3.59668H26.468Z" fill="white"/>
<path d="M36.0094 3.59668V11.0104H34.0483V10.431C33.4243 10.9361 32.6071 11.2333 31.5968 11.2333C29.71 11.2333 27.9568 9.64354 27.9568 7.31097C27.9568 4.97839 29.71 3.37382 31.5968 3.37382C32.6071 3.37382 33.4243 3.67097 34.0483 4.19097V3.59668H36.0094ZM31.9385 9.52468C32.9934 9.52468 34.0483 8.67782 34.0483 7.31097C34.0483 5.94411 32.9934 5.0824 31.9385 5.0824C30.75 5.0824 29.8585 5.94411 29.8585 7.31097C29.8585 8.67782 30.75 9.52468 31.9385 9.52468Z" fill="white"/>
<path d="M42.7041 3.49268C42.8972 3.49268 43.0458 3.49268 43.2241 3.55211L43.1201 5.43897H42.6892C40.8766 5.43897 40.0446 6.55325 40.0446 8.6184V11.0104H38.0835V3.59668H40.0446V4.94868C40.6389 4.08697 41.5006 3.49268 42.7041 3.49268Z" fill="white"/>
<path d="M51.3781 7.1624V7.83097H45.7324C45.9255 8.90068 46.6832 9.5544 47.5895 9.5544C48.1689 9.5544 48.8969 9.48011 49.4318 8.57382L51.1849 8.94525C50.5312 10.4904 49.2089 11.2333 47.5895 11.2333C45.4946 11.2333 43.7861 9.64354 43.7861 7.31097C43.7861 4.97839 45.4946 3.37382 47.6192 3.37382C49.5952 3.37382 51.3038 4.90411 51.3781 7.1624ZM47.6192 5.0824C46.8764 5.0824 46.0295 5.52811 45.7918 6.44925H49.3724C49.1198 5.4984 48.4066 5.0824 47.6192 5.0824Z" fill="white"/>
<path d="M61.4407 1.05611V6.55325C61.4407 9.3464 59.7321 11.2333 57.1618 11.2333C54.5321 11.2333 52.7789 9.3464 52.7789 6.55325V1.05611H54.7995V6.55325C54.7995 8.21725 55.7355 9.30182 57.1618 9.30182C58.5138 9.30182 59.4201 8.21725 59.4201 6.55325V1.05611H61.4407Z" fill="white"/>
<path d="M67.8432 3.37382C69.73 3.37382 71.4832 4.97839 71.4832 7.31097C71.4832 9.64354 69.73 11.2333 67.8432 11.2333C66.8329 11.2333 66.0157 10.9361 65.3917 10.431V13.5361H63.4306V3.59668H65.3917V4.19097C66.0157 3.67097 66.8329 3.37382 67.8432 3.37382ZM67.5014 9.52468C68.69 9.52468 69.5814 8.67782 69.5814 7.31097C69.5814 5.94411 68.69 5.0824 67.5014 5.0824C66.4466 5.0824 65.3917 5.94411 65.3917 7.31097C65.3917 8.67782 66.4466 9.52468 67.5014 9.52468Z" fill="white"/>
</svg>
