<svg width="72" height="14" viewBox="0 0 72 14" fill="none" xmlns="http://www.w3.org/2000/svg">
<path d="M4.07121 0.833252C6.09178 0.833252 7.62207 1.93268 8.00835 3.70068L5.98778 4.11668C5.83921 3.18068 5.02207 2.57154 4.02664 2.57154C3.01635 2.57154 2.40721 3.13611 2.40721 3.80468C2.40721 4.30982 2.63006 4.6664 3.40264 4.81497L5.54207 5.24582C7.16149 5.58754 8.15692 6.55325 8.15692 8.0984C8.15692 10.0298 6.56721 11.2333 4.20492 11.2333C2.12492 11.2333 0.297493 10.2675 0.0449219 8.27668L2.16949 7.84582C2.43692 8.97497 3.26892 9.46525 4.39807 9.46525C5.55692 9.46525 6.16606 8.91554 6.16606 8.2024C6.16606 7.63782 5.89864 7.29611 5.00721 7.11782L2.89749 6.71668C1.70892 6.46411 0.282636 5.8104 0.282636 3.86411C0.282636 2.08125 1.73864 0.833252 4.07121 0.833252Z" fill="white"/>
<path d="M17.3925 3.59668V13.5361H15.4314V10.431C14.8074 10.9361 13.9902 11.2333 12.9799 11.2333C11.0931 11.2333 9.33992 9.64354 9.33992 7.31097C9.33992 4.97839 11.0931 3.37382 12.9799 3.37382C13.9902 3.37382 14.8074 3.67097 15.4314 4.19097V3.59668H17.3925ZM13.3216 9.52468C14.3765 9.52468 15.4314 8.67782 15.4314 7.31097C15.4314 5.94411 14.3765 5.0824 13.3216 5.0824C12.1331 5.0824 11.2416 5.94411 11.2416 7.31097C11.2416 8.67782 12.1331 9.52468 13.3216 9.52468Z" fill="white"/>
<path d="M26.466 3.59668V11.0104H24.5049V10.3418C23.9255 10.9213 23.1529 11.2333 22.1723 11.2333C20.3895 11.2333 19.2009 9.95554 19.2009 8.11325V3.59668H21.162V7.69725C21.162 8.73725 21.7563 9.43554 22.6626 9.43554C23.7769 9.43554 24.5049 8.69268 24.5049 6.88011V3.59668H26.466Z" fill="white"/>
<path d="M36.0075 3.59668V11.0104H34.0463V10.431C33.4223 10.9361 32.6052 11.2333 31.5949 11.2333C29.708 11.2333 27.9549 9.64354 27.9549 7.31097C27.9549 4.97839 29.708 3.37382 31.5949 3.37382C32.6052 3.37382 33.4223 3.67097 34.0463 4.19097V3.59668H36.0075ZM31.9366 9.52468C32.9915 9.52468 34.0463 8.67782 34.0463 7.31097C34.0463 5.94411 32.9915 5.0824 31.9366 5.0824C30.748 5.0824 29.8566 5.94411 29.8566 7.31097C29.8566 8.67782 30.748 9.52468 31.9366 9.52468Z" fill="white"/>
<path d="M42.7021 3.49268C42.8952 3.49268 43.0438 3.49268 43.2221 3.55211L43.1181 5.43897H42.6872C40.8747 5.43897 40.0427 6.55325 40.0427 8.6184V11.0104H38.0815V3.59668H40.0427V4.94868C40.637 4.08697 41.4987 3.49268 42.7021 3.49268Z" fill="white"/>
<path d="M51.3761 7.1624V7.83097H45.7304C45.9235 8.90068 46.6813 9.5544 47.5875 9.5544C48.167 9.5544 48.895 9.48011 49.4298 8.57382L51.183 8.94525C50.5293 10.4904 49.207 11.2333 47.5875 11.2333C45.4927 11.2333 43.7841 9.64354 43.7841 7.31097C43.7841 4.97839 45.4927 3.37382 47.6173 3.37382C49.5933 3.37382 51.3018 4.90411 51.3761 7.1624ZM47.6173 5.0824C46.8744 5.0824 46.0275 5.52811 45.7898 6.44925H49.3704C49.1178 5.4984 48.4047 5.0824 47.6173 5.0824Z" fill="white"/>
<path d="M61.4387 1.05611V6.55325C61.4387 9.3464 59.7301 11.2333 57.1598 11.2333C54.5301 11.2333 52.777 9.3464 52.777 6.55325V1.05611H54.7976V6.55325C54.7976 8.21725 55.7336 9.30182 57.1598 9.30182C58.5118 9.30182 59.4181 8.21725 59.4181 6.55325V1.05611H61.4387Z" fill="white"/>
<path d="M67.8412 3.37382C69.7281 3.37382 71.4812 4.97839 71.4812 7.31097C71.4812 9.64354 69.7281 11.2333 67.8412 11.2333C66.8309 11.2333 66.0138 10.9361 65.3898 10.431V13.5361H63.4286V3.59668H65.3898V4.19097C66.0138 3.67097 66.8309 3.37382 67.8412 3.37382ZM67.4995 9.52468C68.6881 9.52468 69.5795 8.67782 69.5795 7.31097C69.5795 5.94411 68.6881 5.0824 67.4995 5.0824C66.4446 5.0824 65.3898 5.94411 65.3898 7.31097C65.3898 8.67782 66.4446 9.52468 67.4995 9.52468Z" fill="white"/>
</svg>
